Qalam.glyphspackage
{
category = Letter;
color = 9;
glyphname = "alef-ar";
layers = (
{
anchors = (
{
name = damma;
pos = (-72,60);
},
{
name = fatha;
pos = (138,722);
},
{
name = kasra;
pos = (363,-102);
},
{
name = madda;
pos = (-72,726);
}
);
backgroundImage = {
alpha = 80;
imagePath = "images/alef-ar.jpg";
locked = 1;
pos = (-174,-221);
scale = (14.67,14.67);
};
layerId = m01;
shapes = (
{
closed = 1;
nodes = (
(479,-48,o),
(648,38,o),
(740,200,cs),
(743,205,o),
(738,208,o),
(735,204,c),
(641,121,o),
(516,82,o),
(401,82,cs),
(294,82,o),
(185,121,o),
(127,196,cs),
(102,228,o),
(87,268,o),
(87,314,cs),
(87,378,o),
(88,478,o),
(91,608,cs),
(93,693,o),
(94,801,o),
(86,904,cs),
(85,914,o),
(82,914,o),
(77,905,cs),
(58,872,o),
(24,822,o),
(-8,788,cs),
(-11,785,o),
(-10,782,o),
(-9,779,cs),
(-3,748,o),
(3,712,o),
(4,659,cs),
(6,524,o),
(6,371,o),
(0,237,cs),
(-9,38,o),
(141,-48,o),
(302,-48,cs)
);
}
);
width = 741;
},
{
anchors = (
{
name = damma;
pos = (-72,60);
},
{
name = fatha;
pos = (138,722);
},
{
name = kasra;
pos = (234,-82);
},
{
name = madda;
pos = (-72,726);
}
);
associatedMasterId = m01;
attr = {
coordinates = (
0,
7
);
};
backgroundImage = {
alpha = 80;
angle = 1.36743;
imagePath = "images/CBL-MS-1407-000006.png";
locked = 1;
pos = (-868,-436);
scale = (0.9,0.9);
};
layerId = "75B7E13B-2706-41D6-B027-DE4F1A310D01";
name = "{0, 7} 23 Sep 25 at 00:25";
shapes = (
{
closed = 1;
nodes = (
(305,-14,o),
(415,44,o),
(516,160,cs),
(520,165,o),
(515,167,o),
(511,164,cs),
(457,119,o),
(345,93,o),
(250,108,cs),
(180,118,o),
(119,150,o),
(95,212,cs),
(84,239,o),
(83,274,o),
(83,314,cs),
(83,378,o),
(88,478,o),
(91,608,cs),
(93,693,o),
(94,801,o),
(86,904,cs),
(85,914,o),
(82,914,o),
(77,905,cs),
(58,872,o),
(24,822,o),
(-8,788,cs),
(-11,785,o),
(-10,782,o),
(-9,779,cs),
(-3,748,o),
(3,712,o),
(4,659,cs),
(5,482,o),
(7,396,o),
(0,237,cs),
(-9,44,o),
(85,-14,o),
(202,-14,cs)
);
}
);
width = 517;
},
{
anchors = (
{
name = damma;
pos = (-72,60);
},
{
name = fatha;
pos = (138,722);
},
{
name = kasra;
pos = (234,-82);
},
{
name = madda;
pos = (-72,726);
}
);
associatedMasterId = m01;
attr = {
coordinates = (
0,
0
);
};
layerId = "8CF105B5-82F0-4A4C-8F4B-4BC12D8167E3";
name = "24 Jun 23 at 12:30";
shapes = (
{
closed = 1;
nodes = (
(305,-14,o),
(415,44,o),
(516,160,cs),
(520,165,o),
(515,167,o),
(511,164,cs),
(457,119,o),
(345,93,o),
(250,108,cs),
(180,118,o),
(119,150,o),
(95,212,cs),
(84,239,o),
(83,274,o),
(83,314,cs),
(83,378,o),
(88,478,o),
(91,608,cs),
(93,693,o),
(94,801,o),
(86,904,cs),
(85,914,o),
(82,914,o),
(77,905,cs),
(58,872,o),
(24,822,o),
(-8,788,cs),
(-11,785,o),
(-10,782,o),
(-9,779,cs),
(-3,748,o),
(3,712,o),
(4,659,cs),
(5,482,o),
(7,396,o),
(0,237,cs),
(-9,44,o),
(85,-14,o),
(202,-14,cs)
);
}
);
width = 517;
}
);
metricLeft = "=0@237";
metricRight = "=0";
script = arabic;
sortName = arL0004;
sortNameKeep = arL0004;
unicode = 1575;
}
{
category = Letter;
glyphname = "hah-ar";
kernRight = hah.init;
layers = (
{
anchors = (
{
name = bottom;
pos = (883,-78);
},
{
name = damma;
pos = (-90,31);
},
{
name = fatha;
pos = (433,389);
},
{
name = kasra;
pos = (1082,-106);
},
{
name = top;
pos = (351,262);
}
);
backgroundImage = {
alpha = 80;
imagePath = "images/hah-ar.1.jpg";
locked = 1;
pos = (-409,-299);
scale = (14.67,14.67);
};
layerId = m01;
shapes = (
{
closed = 1;
nodes = (
(456,-121,o),
(535,-114,o),
(673,-98,cs),
(764,-88,o),
(840,-45,o),
(882,-23,cs),
(886,-21,o),
(885,-17,o),
(880,-17,cs),
(655,-18,o),
(465,-25,o),
(321,-15,cs),
(240,-10,o),
(156,18,o),
(136,93,cs),
(133,106,o),
(152,111,o),
(156,99,cs),
(179,19,o),
(274,2,o),
(404,-4,cs),
(486,-7,o),
(893,-3,o),
(1131,7,cs),
(1152,7,o),
(1182,10,o),
(1202,23,cs),
(1229,41,o),
(1269,65,o),
(1305,80,cs),
(1310,82,o),
(1309,86,o),
(1304,86,cs),
(1174,83,o),
(1113,87,o),
(992,91,cs),
(693,100,o),
(514,236,o),
(412,324,cs),
(409,326,o),
(407,326,o),
(405,323,cs),
(372,280,o),
(338,243,o),
(303,209,cs),
(300,206,o),
(300,204,o),
(303,202,cs),
(351,160,o),
(410,124,o),
(464,95,c),
(441,122,l),
(425,119,o),
(409,119,o),
(394,122,cs),
(343,132,o),
(297,174,o),
(252,218,cs),
(224,244,o),
(178,246,o),
(137,230,cs),
(37,191,o),
(-29,63,o),
(12,-26,cs),
(47,-103,o),
(118,-125,o),
(300,-123,cs)
);
}
);
width = 1308;
}
);
metricLeft = "=0";
metricRight = "=0";
script = arabic;
sortName = arL0014;
sortNameKeep = arL0014;
unicode = 1581;
}
{
category = Letter;
color = 9;
glyphname = "dal-ar";
kernLeft = dal.fina;
kernRight = dal.isol;
layers = (
{
anchors = (
{
name = damma;
pos = (-14,166);
},
{
name = fatha;
pos = (389,393);
},
{
name = kasra;
pos = (614,-60);
},
{
name = top;
pos = (743,296);
}
);
backgroundImage = {
alpha = 80;
imagePath = "images/image-0056.jpg";
locked = 1;
pos = (-9512,-2379);
scale = (14.67,14.67);
};
layerId = m01;
shapes = (
{
closed = 1;
nodes = (
(1122,0,o),
(1134,16,o),
(1130,38,cs),
(1119,102,o),
(1109,132,o),
(1076,199,cs),
(1072,206,o),
(1063,208,o),
(1056,208,cs),
(808,201,o),
(505,203,o),
(258,212,cs),
(249,212,o),
(247,215,o),
(253,221,cs),
(304,278,o),
(344,328,o),
(382,375,c),
(373,382,l),
(296,302,o),
(214,207,o),
(141,124,cs),
(138,121,o),
(140,118,o),
(144,118,cs),
(404,107,o),
(712,108,o),
(966,112,c),
(969,111,o),
(970,104,o),
(972,100,c),
(704,92,o),
(410,84,o),
(127,99,cs),
(124,99,o),
(122,98,o),
(120,96,cs),
(90,65,o),
(49,35,o),
(3,11,cs),
(-1,8,o),
(-1,5,o),
(4,5,cs),
(361,-3,o),
(747,0,o),
(1108,0,cs)
);
}
);
width = 1131;
},
{
anchors = (
{
name = damma;
pos = (-14,166);
},
{
name = fatha;
pos = (389,393);
},
{
name = kasra;
pos = (3014,-60);
},
{
name = top;
pos = (3143,296);
}
);
associatedMasterId = m01;
attr = {
coordinates = (
0,
100
);
};
layerId = "9D20955F-C25B-4264-B142-35B8B72C809D";
name = "15 May 23 at 00:58";
shapes = (
{
closed = 1;
nodes = (
(5983,0,o),
(5995,16,o),
(5991,38,cs),
(5980,102,o),
(5970,132,o),
(5937,199,c),
(5933,206,o),
(5924,208,o),
(5917,208,cs),
(5669,201,o),
(505,203,o),
(258,212,cs),
(249,212,o),
(247,215,o),
(253,221,cs),
(304,278,o),
(344,328,o),
(382,375,c),
(373,382,l),
(296,302,o),
(214,207,o),
(141,124,cs),
(138,121,o),
(140,118,o),
(144,118,cs),
(485,107,o),
(5572,108,o),
(5827,112,c),
(5830,111,o),
(5831,105,o),
(5833,101,c),
(5565,93,o),
(447,84,o),
(127,99,cs),
(124,99,o),
(122,98,o),
(120,96,cs),
(90,65,o),
(49,35,o),
(3,11,cs),
(-1,8,o),
(-1,5,o),
(4,5,cs),
(455,-3,o),
(5608,0,o),
(5969,0,cs)
);
}
);
width = 5992;
},
{
anchors = (
{
name = damma;
pos = (-14,166);
},
{
name = fatha;
pos = (389,393);
},
{
name = kasra;
pos = (264,-60);
},
{
name = top;
pos = (433,266);
}
);
associatedMasterId = m01;
attr = {
coordinates = (
0,
0
);
};
layerId = "1CF62968-A63C-40D2-BEE2-002831AB3E2E";
name = "{0, -100} 17 May 23 at 03:58";
shapes = (
{
closed = 1;
nodes = (
(522,0,o),
(534,16,o),
(530,38,cs),
(519,102,o),
(509,132,o),
(476,199,cs),
(472,206,o),
(463,209,o),
(456,208,cs),
(405,204,o),
(305,203,o),
(258,212,cs),
(249,214,o),
(247,215,o),
(253,221,cs),
(304,278,o),
(344,328,o),
(382,375,c),
(373,382,l),
(296,302,o),
(214,206,o),
(141,123,cs),
(138,120,o),
(139,117,o),
(143,117,cs),
(206,107,o),
(311,108,o),
(366,112,c),
(369,111,o),
(370,105,o),
(372,101,c),
(304,97,o),
(215,95,o),
(132,105,cs),
(129,105,o),
(127,104,o),
(125,102,cs),
(94,71,o),
(49,36,o),
(3,11,cs),
(-2,8,o),
(0,5,o),
(5,5,cs),
(347,-3,o),
(147,0,o),
(508,0,cs)
);
}
);
width = 531;
}
);
metricLeft = "=0";
metricRight = "=kaf-ar";
script = arabic;
sortName = arL0018;
sortNameKeep = arL0018;
unicode = 1583;
}
{
category = Letter;
glyphname = "seen-ar";
kernLeft = noon;
kernRight = beh.init;
layers = (
{
anchors = (
{
name = damma;
pos = (78,-298);
},
{
name = fatha;
pos = (169,365);
},
{
name = kasra;
pos = (341,-106);
},
{
name = top;
pos = (252,287);
}
);
backgroundImage = {
alpha = 80;
imagePath = "images/seen-ar.2.jpg";
locked = 1;
pos = (-281,-863);
scale = (14.67,14.67);
};
layerId = m01;
shapes = (
{
closed = 1;
nodes = (
(350,0,ls),
(388,0,o),
(390,23,o),
(390,40,cs),
(390,328,l),
(421,363,l),
(406,314,o),
(329,248,o),
(279,220,c),
(285,234,l),
(312,212,o),
(310,140,o),
(310,80,c),
(336,68,l),
(285,93,o),
(274,223,o),
(263,355,c),
(296,331,l),
(292,280,o),
(232,198,o),
(189,160,c),
(190,287,l),
(199,173,o),
(209,61,o),
(244,16,c),
(199,0,l)
);
},
{
ref = "noonghunna-ar";
}
);
width = 410;
}
);
metricLeft = "=noonghunna-ar";
metricRight = "=behDotless-ar.init";
script = arabic;
sortName = arL0023;
sortNameKeep = arL0023;
unicode = 1587;
}
{
category = Letter;
color = 9;
glyphname = "sad-ar";
kernLeft = sad.isol;
kernRight = dal.isol;
layers = (
{
anchors = (
{
name = damma;
pos = (84,-167);
},
{
name = fatha;
pos = (661,271);
},
{
name = kasra;
pos = (620,-71);
},
{
name = top;
pos = (504,277);
}
);
backgroundImage = {
alpha = 80;
angle = 0.5;
imagePath = "images/sad-ar.jpg";
locked = 1;
pos = (-256,-618);
scale = (14.67,14.67);
};
layerId = m01;
shapes = (
{
closed = 1;
nodes = (
(199,-493,o),
(213,-486,o),
(214,-467,cs),
(220,-389,o),
(233,-135,o),
(247,34,cs),
(260,202,o),
(216,279,o),
(95,327,cs),
(89,329,o),
(85,329,o),
(81,321,cs),
(59,285,o),
(32,248,o),
(4,219,cs),
(-1,215,o),
(-2,209,o),
(5,206,cs),
(62,182,o),
(141,149,o),
(148,55,cs),
(160,-94,o),
(141,-247,o),
(131,-389,c),
(145,-365,l),
(86,-370,o),
(31,-364,o),
(-20,-345,cs),
(-25,-343,o),
(-30,-343,o),
(-33,-346,cs),
(-69,-391,o),
(-104,-433,o),
(-139,-445,cs),
(-144,-447,o),
(-147,-453,o),
(-140,-456,cs),
(-50,-492,o),
(68,-503,o),
(183,-494,cs)
);
},
{
closed = 1;
nodes = (
(412,-1,o),
(820,0,o),
(1043,0,cs),
(1059,0,o),
(1115,-4,o),
(1115,22,cs),
(1115,93,o),
(1090,154,o),
(1063,196,cs),
(1053,211,o),
(1040,208,o),
(1026,208,cs),
(787,202,o),
(442,198,o),
(312,206,cs),
(273,208,o),
(236,205,o),
(220,228,c),
(203,103,l),
(378,104,o),
(791,109,o),
(955,112,c),
(956,112,o),
(959,105,o),
(960,101,c),
(792,96,o),
(445,93,o),
(317,93,cs),
(256,93,o),
(286,122,o),
(274,131,c),
(216,131,l),
(216,0,l)
);
}
);
width = 1115;
},
{
anchors = (
{
name = damma;
pos = (84,-167);
},
{
name = fatha;
pos = (3073,271);
},
{
name = kasra;
pos = (3032,-71);
},
{
name = top;
pos = (2916,277);
}
);
associatedMasterId = m01;
attr = {
coordinates = (
0,
100
);
};
backgroundImage = {
alpha = 80;
angle = 0.5;
imagePath = "images/sad-ar.jpg";
locked = 1;
pos = (-256,-618);
scale = (14.67,14.67);
};
layerId = "D9048569-A18A-4C58-AB25-71BFF6897491";
name = "16 May 23 at 18:03";
shapes = (
{
closed = 1;
nodes = (
(199,-493,o),
(213,-486,o),
(214,-467,cs),
(220,-389,o),
(233,-135,o),
(247,34,cs),
(260,202,o),
(216,279,o),
(95,327,cs),
(89,329,o),
(85,329,o),
(81,321,cs),
(59,285,o),
(32,248,o),
(4,219,cs),
(-1,215,o),
(-2,209,o),
(5,206,cs),
(62,182,o),
(141,149,o),
(148,55,cs),
(160,-94,o),
(141,-247,o),
(131,-389,c),
(145,-365,l),
(86,-370,o),
(31,-364,o),
(-20,-345,cs),
(-25,-343,o),
(-30,-343,o),
(-33,-346,cs),
(-69,-391,o),
(-104,-433,o),
(-139,-445,cs),
(-144,-447,o),
(-147,-453,o),
(-140,-456,cs),
(-50,-492,o),
(68,-503,o),
(183,-494,cs)
);
},
{
closed = 1;
nodes = (
(412,-1,o),
(5705,0,o),
(5928,0,cs),
(5944,0,o),
(6000,-4,o),
(6000,22,cs),
(6000,93,o),
(5975,154,o),
(5948,196,cs),
(5938,211,o),
(5925,208,o),
(5911,208,cs),
(5672,202,o),
(442,198,o),
(312,206,cs),
(273,208,o),
(236,205,o),
(220,228,c),
(203,103,l),
(378,104,o),
(5676,109,o),
(5840,112,c),
(5841,112,o),
(5844,105,o),
(5845,101,c),
(5677,96,o),
(445,92,o),
(317,92,cs),
(256,92,o),
(286,122,o),
(274,131,c),
(216,131,l),
(216,0,l)
);
}
);
width = 6000;
},
{
anchors = (
{
name = damma;
pos = (84,-167);
},
{
name = fatha;
pos = (381,301);
},
{
name = kasra;
pos = (390,-71);
},
{
name = top;
pos = (344,277);
}
);
associatedMasterId = m01;
attr = {
coordinates = (
0,
0
);
};
backgroundImage = {
alpha = 80;
angle = 0.5;
imagePath = "images/sad-ar.jpg";
locked = 1;
pos = (-256,-618);
scale = (14.67,14.67);
};
layerId = "FBBB40D6-604B-453C-B72F-BD43BB66B876";
name = "{0, 0} 25 Sep 25 at 20:45";
shapes = (
{
closed = 1;
nodes = (
(199,-493,o),
(213,-486,o),
(214,-467,cs),
(220,-389,o),
(233,-135,o),
(247,34,cs),
(260,202,o),
(216,279,o),
(95,327,cs),
(89,329,o),
(85,329,o),
(81,321,cs),
(59,285,o),
(32,248,o),
(4,219,cs),
(-1,215,o),
(-2,209,o),
(5,206,cs),
(62,182,o),
(141,149,o),
(148,55,cs),
(160,-94,o),
(141,-247,o),
(131,-389,c),
(145,-365,l),
(86,-370,o),
(31,-364,o),
(-20,-345,cs),
(-25,-343,o),
(-30,-343,o),
(-33,-346,cs),
(-69,-391,o),
(-104,-433,o),
(-139,-445,cs),
(-144,-447,o),
(-147,-453,o),
(-140,-456,cs),
(-50,-492,o),
(68,-503,o),
(183,-494,cs)
);
},
{
closed = 1;
nodes = (
(321,-1,o),
(407,-1,o),
(477,0,cs),
(505,0,o),
(530,-6,o),
(528,38,cs),
(525,93,o),
(501,154,o),
(472,200,cs),
(465,212,o),
(453,208,o),
(439,207,cs),
(402,204,o),
(349,204,o),
(313,206,cs),
(274,208,o),
(233,213,o),
(220,228,c),
(201,111,l),
(268,108,o),
(308,109,o),
(364,112,c),
(365,112,o),
(368,105,o),
(369,101,c),
(301,97,o),
(284,98,o),
(273,98,cs),
(234,98,o),
(256,122,o),
(252,131,c),
(216,131,l),
(216,0,l)
);
}
);
width = 528;
}
);
metricLeft = "=0@210";
metricRight = "=0";
script = arabic;
sortName = arL0027;
sortNameKeep = arL0027;
unicode = 1589;
}
{
category = Letter;
color = 9;
glyphname = "tah-ar";
kernRight = dal.isol;
layers = (
{
anchors = (
{
name = damma;
pos = (-59,75);
},
{
name = fatha;
pos = (-24,749);
},
{
name = kasra;
pos = (569,-88);
},
{
name = top;
pos = (391,296);
}
);
backgroundImage = {
alpha = 80;
imagePath = "images/tah-ar.jpg";
locked = 1;
pos = (-192,-285);
scale = (13.45,13.45);
};
layerId = m01;
shapes = (
{
closed = 1;
nodes = (
(150,935,o),
(141,937,o),
(133,923,cs),
(109,882,o),
(86,846,o),
(53,813,cs),
(48,807,o),
(45,797,o),
(45,791,cs),
(46,593,o),
(0,134,o),
(0,99,cs),
(0,89,o),
(3,38,o),
(3,18,cs),
(3,5,o),
(6,-2,o),
(31,-2,cs),
(233,-2,o),
(737,-1,o),
(927,0,cs),
(961,0,o),
(982,1,o),
(982,29,cs),
(982,89,o),
(954,165,o),
(928,199,cs),
(919,210,o),
(909,208,o),
(899,208,cs),
(630,208,o),
(99,179,o),
(84,230,c),
(69,103,l),
(320,108,o),
(570,111,o),
(821,112,c),
(824,112,o),
(826,104,o),
(826,101,c),
(601,96,o),
(375,94,o),
(150,93,c),
(125,93,o),
(110,109,o),
(108,122,cs),
(93,227,o),
(151,765,o),
(150,921,cs)
);
}
);
width = 982;
},
{
anchors = (
{
name = damma;
pos = (-59,75);
},
{
name = fatha;
pos = (3140,279);
},
{
name = kasra;
pos = (3079,-88);
},
{
name = top;
pos = (2901,296);
}
);
associatedMasterId = m01;
attr = {
coordinates = (
0,
100
);
};
layerId = "B85748EF-F7E9-478D-95DB-E97BF30F33E2";
name = "{0, 100} 17 May 23 at 01:16";
shapes = (
{
closed = 1;
nodes = (
(150,935,o),
(141,937,o),
(133,923,cs),
(109,882,o),
(86,846,o),
(53,813,cs),
(48,807,o),
(45,797,o),
(45,791,cs),
(46,593,o),
(0,134,o),
(0,99,cs),
(0,89,o),
(3,38,o),
(3,18,cs),
(3,5,o),
(6,-2,o),
(31,-2,cs),
(2633,8,o),
(4055,8,o),
(5945,0,cs),
(5979,0,o),
(6000,1,o),
(6000,29,cs),
(6000,89,o),
(5972,165,o),
(5946,199,cs),
(5937,210,o),
(5927,208,o),
(5917,208,cs),
(2808,199,o),
(99,179,o),
(84,230,c),
(69,103,l),
(1992,112,o),
(3916,115,o),
(5839,112,c),
(5842,112,o),
(5844,104,o),
(5844,101,c),
(3946,93,o),
(2048,91,o),
(150,93,c),
(125,93,o),
(110,109,o),
(108,122,cs),
(93,227,o),
(151,765,o),
(150,921,cs)
);
}
);
width = 6000;
},
{
anchors = (
{
name = damma;
pos = (-59,75);
},
{
name = fatha;
pos = (300,279);
},
{
name = kasra;
pos = (209,-88);
},
{
name = top;
pos = (231,296);
}
);
associatedMasterId = m01;
attr = {
coordinates = (
0,
0
);
};
layerId = "CA023420-338A-4674-A660-30605F917EAE";
name = "17 May 23 at 16:11";
shapes = (
{
closed = 1;
nodes = (
(150,935,o),
(141,937,o),
(133,923,cs),
(109,882,o),
(86,846,o),
(53,813,cs),
(48,807,o),
(45,797,o),
(45,791,cs),
(46,593,o),
(0,134,o),
(0,99,cs),
(0,89,o),
(3,38,o),
(3,18,cs),
(3,5,o),
(6,-2,o),
(31,-2,c),
(133,1,o),
(235,0,o),
(337,0,cs),
(371,0,o),
(392,1,o),
(392,29,cs),
(392,89,o),
(362,161,o),
(336,200,cs),
(328,211,o),
(319,209,o),
(309,208,cs),
(234,201,o),
(99,204,o),
(84,230,c),
(65,112,l),
(120,112,o),
(176,112,o),
(231,112,cs),
(234,112,o),
(236,104,o),
(236,101,c),
(207,100,o),
(177,99,o),
(148,98,cs),
(113,97,o),
(110,109,o),
(108,122,cs),
(93,227,o),
(151,765,o),
(150,921,cs)
);
}
);
width = 392;
}
);
metricLeft = "=0";
metricRight = "=0";
script = arabic;
sortName = arL0031;
sortNameKeep = arL0031;
unicode = 1591;
}
{
category = Letter;
glyphname = "ain-ar";
kernRight = hah.init;
layers = (
{
anchors = (
{
name = damma;
pos = (-62,8);
},
{
name = fatha;
pos = (428,524);
},
{
name = kasra;
pos = (1005,-72);
},
{
name = top;
pos = (400,391);
}
);
layerId = m01;
shapes = (
{
closed = 1;
nodes = (
(299,-156,o),
(585,-125,o),
(812,-87,cs),
(823,-85,o),
(835,-76,o),
(846,-70,cs),
(871,-57,o),
(895,-40,o),
(920,-26,c),
(932,-21,o),
(931,-16,o),
(922,-16,c),
(735,-23,o),
(533,-26,o),
(330,-17,cs),
(250,-14,o),
(160,4,o),
(127,79,cs),
(121,92,o),
(137,98,o),
(142,86,cs),
(192,-39,o),
(468,-1,o),
(603,-1,cs),
(758,-2,o),
(1057,-7,o),
(1070,-7,cs),
(1083,-7,o),
(1097,-6,o),
(1110,2,cs),
(1147,26,o),
(1196,72,o),
(1229,82,cs),
(1245,87,o),
(1237,95,o),
(1226,95,cs),
(1019,76,o),
(830,87,o),
(660,131,cs),
(565,156,o),
(487,219,o),
(423,313,cs),
(414,327,o),
(409,351,o),
(419,368,cs),
(439,401,o),
(460,420,o),
(486,450,cs),
(494,459,o),
(483,472,o),
(474,462,cs),
(420,404,o),
(371,345,o),
(317,266,cs),
(309,254,o),
(306,240,o),
(308,223,cs),
(315,178,o),
(339,134,o),
(384,93,c),
(426,106,l),
(401,112,o),
(377,112,o),
(348,129,cs),
(331,139,o),
(312,156,o),
(291,183,cs),
(252,235,o),
(218,254,o),
(158,246,cs),
(89,238,o),
(-7,152,o),
(0,16,cs),
(4,-54,o),
(43,-107,o),
(131,-124,cs)
);
}
);
width = 1238;
}
);
metricLeft = "=0";
metricRight = "=0";
script = arabic;
sortName = arL0035;
sortNameKeep = arL0035;
unicode = 1593;
}
{
category = Letter;
color = 9;
glyphname = "kaf-ar";
kernRight = dal.isol;
layers = (
{
anchors = (
{
name = damma;
pos = (-22,49);
},
{
name = fatha;
pos = (27,758);
},
{
name = gaf;
pos = (142,855);
},
{
name = kasra;
pos = (658,-67);
}
);
backgroundImage = {
alpha = 80;
imagePath = "images/kaf-ar.jpg";
pos = (-130,-148);
scale = (13.45,13.45);
};
layerId = m01;
shapes = (
{
closed = 1;
nodes = (
(541,-12,o),
(908,-6,o),
(1122,0,cs),
(1146,1,o),
(1160,9,o),
(1154,41,cs),
(1142,105,o),
(1127,158,o),
(1096,198,cs),
(1084,212,o),
(1068,210,o),
(1042,209,cs),
(831,199,o),
(613,191,o),
(427,192,cs),
(327,193,o),
(227,206,o),
(224,296,cs),
(221,440,o),
(215,543,o),
(220,728,cs),
(221,785,o),
(214,857,o),
(204,914,cs),
(203,923,o),
(196,925,o),
(192,918,cs),
(155,846,o),
(122,785,o),
(107,775,cs),
(97,768,o),
(95,763,o),
(100,752,cs),
(113,724,o),
(120,683,o),
(120,629,cs),
(120,444,o),
(120,317,o),
(122,136,cs),
(122,116,o),
(138,104,o),
(167,102,cs),
(370,90,o),
(817,98,o),
(989,114,c),
(990,114,o),
(993,107,o),
(994,103,c),
(824,82,o),
(384,80,o),
(278,80,cs),
(148,80,o),
(122,93,o),
(115,96,cs),
(107,100,o),
(105,98,o),
(102,94,cs),
(87,72,o),
(50,46,o),
(7,16,cs),
(-1,10,o),
(-5,-2,o),
(14,-4,cs),
(80,-12,o),
(198,-12,o),
(296,-12,cs)
);
}
);
width = 1155;
},
{
anchors = (
{
name = damma;
pos = (-22,49);
},
{
name = fatha;
pos = (27,758);
},
{
name = gaf;
pos = (142,855);
},
{
name = kasra;
pos = (3088,-67);
}
);
associatedMasterId = m01;
attr = {
coordinates = (
0,
100
);
};
layerId = "74D6E443-AAA2-4E7E-A54D-56928A737A53";
name = "17 May 23 at 02:07";
shapes = (
{
closed = 1;
nodes = (
(2941,-3,o),
(3253,-3,o),
(5967,0,cs),
(5991,0,o),
(6005,9,o),
(5999,41,cs),
(5987,105,o),
(5972,158,o),
(5941,198,cs),
(5929,212,o),
(5913,209,o),
(5887,209,cs),
(3176,191,o),
(3013,191,o),
(427,192,cs),
(327,192,o),
(227,206,o),
(224,296,cs),
(221,440,o),
(215,543,o),
(220,728,cs),
(221,785,o),
(214,857,o),
(204,914,cs),
(203,923,o),
(196,925,o),
(192,918,cs),
(155,846,o),
(122,785,o),
(107,775,cs),
(97,768,o),
(95,763,o),
(100,752,cs),
(113,724,o),
(120,683,o),
(120,629,cs),
(120,444,o),
(120,317,o),
(122,136,cs),
(122,116,o),
(138,104,o),
(167,102,cs),
(370,90,o),
(3162,101,o),
(5834,114,c),
(5835,114,o),
(5838,107,o),
(5839,103,c),
(3169,80,o),
(2784,78,o),
(278,80,cs),
(148,80,o),
(122,93,o),
(115,96,cs),
(107,100,o),
(105,98,o),
(102,94,cs),
(87,72,o),
(50,46,o),
(7,16,cs),
(-1,10,o),
(-5,-2,o),
(14,-4,cs),
(80,-12,o),
(198,-12,o),
(296,-12,cs)
);
}
);
width = 6000;
},
{
anchors = (
{
name = damma;
pos = (-22,49);
},
{
name = fatha;
pos = (27,758);
},
{
name = gaf;
pos = (142,855);
},
{
name = kasra;
pos = (658,-67);
}
);
associatedMasterId = m01;
attr = {
coordinates = (
0,
0
);
};
layerId = "0D282A75-1740-4E75-802F-0DDF4FEE7E15";
name = "{0, 0} 27 Sep 25 at 12:58";
shapes = (
{
closed = 1;
nodes = (
(247,-3,o),
(290,1,o),
(498,0,cs),
(522,0,o),
(536,9,o),
(530,41,cs),
(518,105,o),
(503,158,o),
(472,198,cs),
(460,212,o),
(444,207,o),
(418,206,cs),
(356,204,o),
(323,206,o),
(287,208,cs),
(237,211,o),
(227,221,o),
(224,311,cs),
(221,455,o),
(215,543,o),
(220,728,cs),
(221,785,o),
(214,857,o),
(204,914,cs),
(203,923,o),
(196,925,o),
(192,918,cs),
(155,846,o),
(122,785,o),
(107,775,cs),
(97,768,o),
(95,763,o),
(100,752,cs),
(113,724,o),
(120,683,o),
(120,629,cs),
(120,444,o),
(120,330,o),
(122,149,cs),
(122,129,o),
(138,119,o),
(167,115,cs),
(200,111,o),
(278,105,o),
(366,112,c),
(369,111,o),
(370,105,o),
(372,101,c),
(366,100,o),
(244,94,o),
(167,101,cs),
(145,103,o),
(126,106,o),
(115,111,cs),
(107,114,o),
(105,113,o),
(102,109,cs),
(87,87,o),
(50,46,o),
(7,16,cs),
(-1,10,o),
(-5,5,o),
(14,3,cs),
(80,-5,o),
(147,-3,o),
(174,-3,cs)
);
}
);
width = 531;
}
);
metricLeft = "=0";
metricRight = "=0";
script = arabic;
sortName = arL0046;
sortNameKeep = arL0046;
unicode = 1603;
}
{
category = Letter;
glyphname = "lam-ar";
kernLeft = lam.fina;
layers = (
{
anchors = (
{
name = damma;
pos = (72,0);
},
{
name = fatha;
pos = (90,641);
},
{
name = kasra;
pos = (374,-205);
}
);
backgroundImage = {
alpha = 80;
imagePath = "images/lam-ar.jpg";
pos = (-351,-514);
scale = (14.67,14.67);
};
layerId = m01;
shapes = (
{
closed = 1;
nodes = (
(295,-398,o),
(306,-404,o),
(309,-377,cs),
(312,-360,o),
(312,-326,o),
(310,-301,cs),
(300,-151,o),
(295,5,o),
(293,158,cs),
(290,365,o),
(287,618,o),
(284,820,cs),
(283,870,o),
(276,892,o),
(270,910,cs),
(268,919,o),
(263,918,o),
(259,910,cs),
(233,855,o),
(206,814,o),
(178,794,cs),
(171,789,o),
(168,783,o),
(171,777,cs),
(176,762,o),
(181,742,o),
(182,726,cs),
(200,355,o),
(204,13,o),
(200,-277,c),
(134,-279,o),
(72,-277,o),
(20,-260,cs),
(14,-257,o),
(7,-255,o),
(0,-263,cs),
(-22,-289,o),
(-99,-349,o),
(-156,-389,cs),
(-162,-392,o),
(-165,-402,o),
(-148,-402,cs),
(-21,-402,o),
(136,-411,o),
(235,-403,cs)
);
}
);
width = 311;
}
);
metricLeft = "=0@-263";
metricRight = "=0";
script = arabic;
sortName = arL0053;
sortNameKeep = arL0053;
unicode = 1604;
}
{
category = Letter;
glyphname = "meem-ar";
kernLeft = meem.fina;
kernRight = meem;
layers = (
{
anchors = (
{
name = damma;
pos = (-20,60);
},
{
name = fatha;
pos = (477,415);
},
{
name = kasra;
pos = (502,-84);
}
);
layerId = m01;
shapes = (
{
closed = 1;
nodes = (
(655,-16,o),
(675,16,o),
(675,104,cs),
(675,223,o),
(600,367,o),
(495,367,cs),
(386,367,o),
(282,233,o),
(282,94,cs),
(282,1,o),
(394,-16,o),
(483,-16,cs)
);
},
{
closed = 1;
nodes = (
(325,95,l),
(265,92,o),
(201,96,o),
(141,109,cs),
(133,110,o),
(128,109,o),
(124,105,cs),
(89,70,o),
(49,42,o),
(5,15,cs),
(-1,11,o),
(-3,5,o),
(6,4,cs),
(157,-5,o),
(335,-16,o),
(483,-16,c)
);
},
{
closed = 1;
nodes = (
(483,172,o),
(479,176,o),
(479,181,cs),
(479,186,o),
(483,191,o),
(488,191,cs),
(493,191,o),
(498,186,o),
(498,181,cs),
(498,176,o),
(493,172,o),
(488,172,cs)
);
}
);
width = 675;
}
);
metricLeft = "=0";
metricRight = "=0";
script = arabic;
sortName = arL0057;
sortNameKeep = arL0057;
unicode = 1605;
}
{
category = Letter;
glyphname = "heh-ar";
kernLeft = heh;
kernRight = beh.init;
layers = (
{
anchors = (
{
name = damma;
pos = (-66,115);
},
{
name = fatha;
pos = (295,574);
},
{
name = kasra;
pos = (208,-69);
},
{
name = top;
pos = (272,494);
}
);
backgroundImage = {
alpha = 80;
imagePath = "images/heh-ar.jpg";
pos = (-144,-213);
scale = (14.67,14.67);
};
layerId = m01;
shapes = (
{
closed = 1;
nodes = (
(310,7,o),
(345,6,o),
(351,43,cs),
(362,121,o),
(343,408,o),
(320,560,cs),
(318,574,o),
(312,565,o),
(310,560,cs),
(299,523,o),
(263,467,o),
(231,429,cs),
(227,425,o),
(226,419,o),
(231,414,cs),
(242,401,o),
(236,340,o),
(241,301,c),
(282,384,l),
(155,377,o),
(0,288,o),
(0,150,cs),
(0,-4,o),
(178,-4,o),
(285,4,cs)
);
},
{
closed = 1;
nodes = (
(208,189,o),
(203,194,o),
(203,200,cs),
(203,205,o),
(208,211,o),
(214,211,cs),
(220,211,o),
(225,205,o),
(225,200,cs),
(225,194,o),
(220,189,o),
(214,189,cs)
);
}
);
width = 354;
}
);
metricLeft = "=0";
metricRight = "=0";
script = arabic;
sortName = arL0063;
sortNameKeep = arL0063;
unicode = 1607;
}
{
category = Letter;
color = 9;
glyphname = "behDotless-ar";
layers = (
{
anchors = (
{
name = bottom;
pos = (1303,34);
},
{
name = damma;
pos = (-78,50);
},
{
name = fatha;
pos = (1144,353);
},
{
name = kasra;
pos = (1106,-60);
},
{
name = top;
pos = (1090,230);
}
);
backgroundImage = {
alpha = 80;
imagePath = "images/behDotless-ar.jpg";
pos = (-421,-293);
scale = (14.67,14.67);
};
layerId = m01;
shapes = (
{
closed = 1;
nodes = (
(1135,0,o),
(1202,0,o),
(1268,0,cs),
(1289,0,o),
(1333,5,o),
(1331,29,cs),
(1325,128,o),
(1245,266,o),
(1154,279,c),
(1126,236,o),
(1080,184,o),
(1048,163,cs),
(1042,159,o),
(1046,153,o),
(1052,152,cs),
(1108,144,o),
(1151,116,o),
(1155,96,c),
(1155,92,o),
(1148,89,o),
(1126,89,cs),
(995,84,o),
(845,81,o),
(692,81,cs),
(511,82,o),
(326,85,o),
(163,92,cs),
(150,93,o),
(130,99,o),
(122,115,cs),
(121,118,o),
(120,120,o),
(117,115,cs),
(85,70,o),
(34,21,o),
(4,14,c),
(-1,12,o),
(-1,7,o),
(6,7,cs),
(408,7,o),
(634,0,o),
(1069,0,cs)
);
}
);
width = 1331;
},
{
anchors = (
{
name = bottom;
pos = (5972,34);
},
{
name = damma;
pos = (-78,50);
},
{
name = fatha;
pos = (5813,353);
},
{
name = kasra;
pos = (5775,-60);
},
{
name = top;
pos = (5759,230);
}
);
associatedMasterId = m01;
attr = {
coordinates = (
0,
100
);
};
layerId = "307A62E0-5030-4782-86E3-03AB3DF697F9";
name = "17 May 23 at 02:24";
shapes = (
{
closed = 1;
nodes = (
(5804,0,o),
(5871,0,o),
(5937,0,cs),
(5958,0,o),
(6002,5,o),
(6000,29,cs),
(5994,128,o),
(5914,266,o),
(5823,279,c),
(5795,236,o),
(5749,184,o),
(5717,163,cs),
(5711,159,o),
(5715,153,o),
(5721,152,cs),
(5777,144,o),
(5820,116,o),
(5824,96,c),
(5824,92,o),
(5817,89,o),
(5795,89,cs),
(5599,81,o),
(3025,82,o),
(2819,82,cs),
(2602,82,o),
(370,84,o),
(163,92,cs),
(150,93,o),
(130,99,o),
(122,115,cs),
(121,118,o),
(120,120,o),
(117,115,cs),
(85,70,o),
(34,21,o),
(4,14,c),
(-1,12,o),
(-1,7,o),
(6,7,cs),
(1917,5,o),
(3827,2,o),
(5738,0,c)
);
}
);
width = 6000;
},
{
anchors = (
{
name = bottom;
pos = (513,34);
},
{
name = damma;
pos = (-51,86);
},
{
name = fatha;
pos = (354,353);
},
{
name = kasra;
pos = (316,-60);
},
{
name = top;
pos = (300,230);
}
);
associatedMasterId = m01;
attr = {
coordinates = (
0,
0
);
};
backgroundImage = {
alpha = 80;
imagePath = "images/CBL-MS-1407-000001.png";
locked = 1;
pos = (-3269,-3507);
scale = (3.4,3.4);
};
layerId = "E3D62362-D447-4A83-A898-84C06634E39F";
name = "{0, 0} 23 Sep 25 at 11:37";
shapes = (
{
closed = 1;
nodes = (
(392,-3,o),
(435,-3,o),
(478,0,cs),
(499,1,o),
(543,5,o),
(541,29,cs),
(535,128,o),
(457,239,o),
(390,312,c),
(362,269,o),
(312,206,o),
(280,185,cs),
(274,181,o),
(278,178,o),
(284,174,cs),
(319,150,o),
(345,118,o),
(345,108,cs),
(345,104,o),
(338,102,o),
(316,101,cs),
(292,99,o),
(256,98,o),
(221,99,cs),
(195,100,o),
(170,102,o),
(149,107,cs),
(140,109,o),
(131,111,o),
(124,114,cs),
(119,116,o),
(119,117,o),
(116,113,cs),
(85,70,o),
(34,24,o),
(4,17,c),
(-1,15,o),
(-1,11,o),
(6,10,cs),
(108,2,o),
(246,0,o),
(349,-2,cs)
);
}
);
width = 541;
}
);
metricLeft = "=0";
metricRight = "=0";
script = arabic;
sortName = arL0008;
sortNameKeep = arL0008;
unicode = 1646;
}
{
category = Letter;
color = 9;
glyphname = "fehDotless-ar";
kernRight = feh.init;
layers = (
{
anchors = (
{
name = bottom;
pos = (1317,28);
},
{
name = damma;
pos = (-73,50);
},
{
name = fatha;
pos = (1120,519);
},
{
name = kasra;
pos = (543,-62);
},
{
name = top;
pos = (1002,416);
}
);
layerId = m01;
shapes = (
{
closed = 1;
nodes = (
(1193,0,o),
(1331,-9,o),
(1331,76,cs),
(1331,285,o),
(1237,448,o),
(1123,448,cs),
(1026,448,o),
(951,329,o),
(951,237,cs),
(951,182,o),
(967,154,o),
(1002,133,cs),
(1057,100,o),
(1148,103,o),
(1210,112,c),
(1217,100,l),
(1138,86,o),
(886,80,o),
(640,81,cs),
(452,81,o),
(266,85,o),
(163,92,cs),
(148,93,o),
(131,99,o),
(122,115,cs),
(120,119,o),
(120,120,o),
(117,115,cs),
(84,70,o),
(37,23,o),
(5,14,cs),
(-2,12,o),
(-2,7,o),
(7,7,cs),
(49,7,o),
(359,5,o),
(640,3,cs),
(867,1,o),
(1074,0,o),
(1108,0,cs)
);
},
{
closed = 1;
nodes = (
(1120,265,o),
(1115,270,o),
(1115,276,cs),
(1115,282,o),
(1120,287,o),
(1126,287,cs),
(1132,287,o),
(1137,282,o),
(1137,276,cs),
(1137,270,o),
(1132,265,o),
(1126,265,cs)
);
}
);
width = 1331;
},
{
anchors = (
{
name = bottom;
pos = (1317,28);
},
{
name = damma;
pos = (-73,50);
},
{
name = fatha;
pos = (5789,519);
},
{
name = kasra;
pos = (2883,-62);
},
{
name = top;
pos = (5671,416);
}
);
associatedMasterId = m01;
attr = {
coordinates = (
0,
100
);
};
layerId = "CD47D3D8-91E7-4A64-A046-25B89C87F1C6";
name = "17 May 23 at 17:31";
shapes = (
{
closed = 1;
nodes = (
(5862,0,o),
(6000,-9,o),
(6000,76,cs),
(6000,285,o),
(5906,448,o),
(5792,448,cs),
(5695,448,o),
(5620,329,o),
(5620,237,cs),
(5620,182,o),
(5636,154,o),
(5671,133,cs),
(5726,100,o),
(5817,103,o),
(5879,112,c),
(5886,100,l),
(5815,87,o),
(4408,78,o),
(3007,77,cs),
(1641,76,o),
(280,85,o),
(163,92,cs),
(148,93,o),
(131,99,o),
(122,115,cs),
(120,119,o),
(120,120,o),
(117,115,cs),
(84,70,o),
(37,23,o),
(5,14,cs),
(-2,12,o),
(-2,7,o),
(7,7,cs),
(46,7,o),
(1545,8,o),
(3005,6,cs),
(4390,5,o),
(5740,0,o),
(5777,0,cs)
);
},
{
closed = 1;
nodes = (
(5789,265,o),
(5784,270,o),
(5784,276,cs),
(5784,282,o),
(5789,287,o),
(5795,287,cs),
(5801,287,o),
(5806,282,o),
(5806,276,cs),
(5806,270,o),
(5801,265,o),
(5795,265,cs)
);
}
);
width = 6000;
},
{
anchors = (
{
name = bottom;
pos = (606,28);
},
{
name = damma;
pos = (-73,50);
},
{
name = fatha;
pos = (409,519);
},
{
name = kasra;
pos = (323,-62);
},
{
name = top;
pos = (291,416);
}
);
associatedMasterId = m01;
attr = {
coordinates = (
0,
0
);
};
layerId = "32CE617B-9BC0-4F91-998B-D8877494DCA0";
name = "17 May 23 at 17:31";
shapes = (
{
closed = 1;
nodes = (
(482,0,o),
(620,-9,o),
(620,76,cs),
(620,285,o),
(526,448,o),
(412,448,cs),
(315,448,o),
(240,329,o),
(240,237,cs),
(240,182,o),
(256,154,o),
(291,133,cs),
(346,100,o),
(437,103,o),
(499,112,c),
(506,100,l),
(458,94,o),
(394,91,o),
(330,91,cs),
(273,91,o),
(247,93,o),
(203,95,cs),
(189,96,o),
(154,101,o),
(134,115,cs),
(131,117,o),
(129,117,o),
(127,114,cs),
(93,70,o),
(36,16,o),
(5,7,cs),
(-2,5,o),
(-2,0,o),
(7,0,cs),
(56,0,o),
(174,0,o),
(282,0,cs),
(340,0,o),
(396,0,o),
(437,0,cs)
);
},
{
closed = 1;
nodes = (
(409,265,o),
(404,270,o),
(404,276,cs),
(404,282,o),
(409,287,o),
(415,287,cs),
(421,287,o),
(426,282,o),
(426,276,cs),
(426,270,o),
(421,265,o),
(415,265,cs)
);
}
);
width = 620;
}
);
metricLeft = "=behDotless-ar";
metricRight = "=0";
script = arabic;
sortName = arL0039;
sortNameKeep = arL0039;
unicode = 1697;
}
{
category = Letter;
glyphname = "noonghunna-ar";
layers = (
{
anchors = (
{
name = damma;
pos = (109,-259);
},
{
name = fatha;
pos = (57,231);
},
{
name = hamza;
pos = (-98,40);
},
{
name = kasra;
pos = (368,-323);
},
{
name = top;
pos = (16,134);
}
);
backgroundImage = {
alpha = 80;
imagePath = "images/image-0056.jpg";
locked = 1;
pos = (-8168,-2377);
scale = (14.67,14.67);
};
layerId = m01;
shapes = (
{
closed = 1;
nodes = (
(-133,-415,l),
(223,-415,ls),
(261,-415,o),
(263,-392,o),
(263,-375,cs),
(263,-307,ls),
(263,-28,o),
(277,128,o),
(54,219,c),
(115,276,l),
(93,149,o),
(36,100,o),
(-38,19,c),
(-45,71,l),
(197,32,o),
(183,-112,o),
(183,-297,cs),
(183,-325,l),
(131,-325,o),
(10,-316,o),
(-6,-290,c),
(22,-294,l),
(-6,-344,o),
(-104,-421,o),
(-153,-436,c)
);
}
);
width = 283;
},
{
anchors = (
{
name = damma;
pos = (132,-239);
},
{
name = fatha;
pos = (80,251);
},
{
name = hamza;
pos = (-75,60);
},
{
name = kasra;
pos = (391,-303);
},
{
name = top;
pos = (39,154);
}
);
associatedMasterId = m01;
backgroundImage = {
alpha = 80;
imagePath = "images/image-0056.jpg";
locked = 1;
pos = (-8145,-2377);
scale = (14.67,14.67);
};
layerId = "E1EA3C2F-626F-4255-B51F-3F4EACA3D84C";
name = "28 Sep 25 at 19:21";
shapes = (
{
closed = 1;
nodes = (
(288,-647,o),
(297,-632,o),
(297,-615,cs),
(297,-434,o),
(306,-254,o),
(303,-73,cs),
(300,99,o),
(238,186,o),
(101,231,cs),
(98,232,o),
(96,232,o),
(94,229,cs),
(0,105,ls),
(-2,102,o),
(-1,100,o),
(3,99,cs),
(77,86,o),
(158,45,o),
(188,-32,cs),
(229,-139,o),
(218,-348,o),
(206,-531,c),
(143,-537,o),
(74,-528,o),
(15,-509,cs),
(12,-508,o),
(10,-509,o),
(9,-512,cs),
(-18,-556,o),
(-50,-598,o),
(-90,-630,cs),
(-93,-633,o),
(-93,-636,o),
(-89,-637,cs),
(23,-666,o),
(158,-666,o),
(267,-650,cs)
);
}
);
visible = 1;
width = 304;
}
);
metricLeft = "=-110";
metricRight = "=20";
script = arabic;
sortName = arL0061;
sortNameKeep = arL0061;
unicode = 1722;
}
{
glyphname = _c.ain.dal;
layers = (
{
anchors = (
{
name = entry;
pos = (28,0);
},
{
name = exit;
}
);
layerId = m01;
shapes = (
{
closed = 1;
nodes = (
(76,0,l),
(76,104,l),
(37,139,o),
(19,148,o),
(-39,201,cs),
(-48,209,o),
(-52,209,o),
(-110,206,c),
(-110,0,l)
);
}
);
width = 76;
}
);
}
{
glyphname = _c.ain.init.beh;
layers = (
{
anchors = (
{
name = entry;
pos = (49,0);
},
{
name = exit;
}
);
layerId = m01;
shapes = (
{
closed = 1;
nodes = (
(93,0,l),
(93,110,l),
(49,118,o),
(-6,155,o),
(-8,234,c),
(-26,234,l),
(-26,0,l)
);
}
);
width = 93;
}
);
metricLeft = "=-26";
metricRight = "=0";
}
{
glyphname = _c.ain.medi.beh;
layers = (
{
anchors = (
{
name = entry;
pos = (106,0);
},
{
name = exit;
}
);
layerId = m01;
shapes = (
{
closed = 1;
nodes = (
(176,0,l),
(176,123,l),
(134,123,o),
(-5,121,o),
(-8,234,c),
(-26,234,l),
(-26,0,l)
);
}
);
width = 176;
}
);
metricLeft = "=-26";
metricRight = "=0";
}
{
category = Mark;
direction = RTL;
glyphname = _c.ain.medi.reh;
layers = (
{
layerId = m01;
shapes = (
{
closed = 1;
nodes = (
(34,0,l),
(34,109,l),
(4,132,o),
(-25,154,o),
(-54,182,c),
(-64,182,l),
(-10,0,l)
);
}
);
width = 34;
}
);
metricLeft = "=-64";
script = arabic;
subCategory = Nonspacing;
}
{
category = Mark;
direction = RTL;
glyphname = _c.ain.medi.waw;
layers = (
{
layerId = m01;
shapes = (
{
closed = 1;
nodes = (
(116,0,l),
(116,110,l),
(79,114,o),
(-8,147,o),
(-54,220,c),
(-4,0,l)
);
}
);
width = 116;
}
);
script = arabic;
subCategory = Nonspacing;
}
{
glyphname = _c.ain.meem;
kernLeft = _c.meem;
layers = (
{
anchors = (
{
name = entry;
pos = (58,0);
},
{
name = exit;
}
);
layerId = m01;
shapes = (
{
closed = 1;
nodes = (
(102,0,l),
(102,110,l),
(68,110,o),
(10,141,o),
(-13,192,c),
(-23,192,l),
(-23,0,l)
);
}
);
width = 102;
}
);
metricRight = "=0";
}
{
glyphname = _c.ain.yeh;
layers = (
{
anchors = (
{
name = entry;
pos = (25,0);
},
{
name = exit;
pos = (22,0);
}
);
layerId = m01;
shapes = (
{
closed = 1;
nodes = (
(77,0,l),
(77,110,l),
(47,109,o),
(6,122,o),
(-27,153,c),
(-50,153,l),
(17,0,l)
);
}
);
width = 77;
}
);
metricRight = "=0";
}
{
glyphname = _c.feh.init.beh;
layers = (
{
anchors = (
{
name = entry;
pos = (58,0);
},
{
name = exit;
}
);
layerId = m01;
shapes = (
{
closed = 1;
nodes = (
(45,0,l),
(212,114,l),
(72,105,o),
(-6,153,o),
(-9,264,c),
(-26,264,l),
(-26,0,l)
);
}
);
width = 212;
}
);
metricLeft = "=-26";
metricRight = "=0";
}
{
glyphname = _c.feh.init.dal;
layers = (
{
anchors = (
{
name = entry;
pos = (18,0);
},
{
name = exit;
}
);
layerId = m01;
shapes = (
{
closed = 1;
nodes = (
(3,0,l),
(150,112,l),
(41,111,o),
(-14,140,o),
(-38,199,c),
(-67,199,l),
(-67,0,l)
);
}
);
width = 150;
}
);
}
{
glyphname = _c.feh.medi.beh;
layers = (
{
anchors = (
{
name = entry;
pos = (-4,0);
},
{
name = exit;
}
);
layerId = m01;
shapes = (
{
closed = 1;
nodes = (
(68,0,l),
(68,110,l),
(30,108,o),
(-4,160,o),
(-6,209,c),
(-26,209,l),
(-26,0,l)
);
}
);
width = 68;
}
);
metricLeft = "=-26";
metricRight = "=0";
}
{
glyphname = _c.feh.medi.dal;
layers = (
{
anchors = (
{
name = entry;
pos = (-22,0);
},
{
name = exit;
}
);
layerId = m01;
shapes = (
{
closed = 1;
nodes = (
(56,0,l),
(56,104,l),
(20,131,o),
(-12,162,o),
(-38,200,cs),
(-46,211,o),
(-69,207,o),
(-75,207,c),
(-75,0,l)
);
}
);
width = 56;
}
);
metricRight = "=0";
}
{
glyphname = _c.feh.medi.meem;
kernLeft = _c.meem;
layers = (
{
anchors = (
{
name = entry;
pos = (-12,0);
},
{
name = exit;
}
);
layerId = m01;
shapes = (
{
closed = 1;
nodes = (
(60,0,l),
(60,110,l),
(31,109,o),
(4,138,o),
(-8,174,c),
(-33,174,l),
(-33,0,l)
);
}
);
width = 60;
}
);
metricRight = "=0";
}
{
category = Mark;
direction = RTL;
glyphname = _c.feh.medi.reh;
layers = (
{
layerId = m01;
shapes = (
{
closed = 1;
nodes = (
(37,0,l),
(37,110,l),
(20,109,o),
(4,119,o),
(-9,134,c),
(-20,134,l),
(-20,0,l)
);
}
);
width = 37;
}
);
metricRight = "=0";
script = arabic;
subCategory = Nonspacing;
}
{
glyphname = _c.hah.beh;
layers = (
{
anchors = (
{
name = entry;
pos = (10,0);
},
{
name = exit;
}
);
layerId = m01;
shapes = (
{
closed = 1;
nodes = (
(129,59,l),
(129,110,l),
(49,110,o),
(1,128,o),
(-5,192,c),
(-26,192,l),
(-26,0,l)
);
}
);
width = 129;
}
);
metricLeft = "=-26";
metricRight = "=0";
}
{
glyphname = _c.hah.dal;
layers = (
{
anchors = (
{
name = entry;
pos = (15,0);
},
{
name = exit;
}
);
layerId = m01;
shapes = (
{
closed = 1;
nodes = (
(84,0,l),
(84,108,l),
(-4,147,o),
(-19,174,o),
(-39,201,cs),
(-47,212,o),
(-61,207,o),
(-80,207,c),
(-80,0,l)
);
}
);
width = 84;
}
);
metricRight = "=0";
}
{
glyphname = _c.hah.noon;
layers = (
{
anchors = (
{
name = entry;
pos = (-9,0);
},
{
name = exit;
pos = (-5,0);
}
);
layerId = m01;
shapes = (
{
closed = 1;
nodes = (
(70,26,l),
(70,110,l),
(1,116,o),
(-23,141,o),
(-70,174,c),
(-42,26,l)
);
}
);
width = 0;
}
);
}
{
category = Mark;
direction = RTL;
glyphname = _c.hah.reh;
layers = (
{
layerId = m01;
shapes = (
{
closed = 1;
nodes = (
(91,59,l),
(91,108,l),
(32,114,o),
(-1,128,o),
(-42,171,c),
(-53,171,l),
(-53,0,l)
);
}
);
width = 91;
}
);
metricRight = "=0";
script = arabic;
subCategory = Nonspacing;
}
{
glyphname = _c.seen.beh;
layers = (
{
anchors = (
{
name = entry;
pos = (20,0);
},
{
name = exit;
}
);
layerId = m01;
shapes = (
{
closed = 1;
nodes = (
(55,45,l),
(55,127,l),
(41,128,o),
(-5,137,o),
(-6,202,c),
(-26,202,l),
(-26,45,l)
);
}
);
width = 55;
}
);
metricLeft = "=-26";
metricRight = "=0";
}
{
glyphname = _c.seen.meem;
kernLeft = _c.meem;
layers = (
{
anchors = (
{
name = entry;
pos = (30,0);
},
{
name = exit;
}
);
layerId = m01;
shapes = (
{
closed = 1;
nodes = (
(60,0,l),
(60,122,l),
(17,129,o),
(2,145,o),
(-9,179,c),
(-26,177,l),
(-26,0,l)
);
}
);
width = 60;
}
);
metricRight = "=0";
}
{
glyphname = _dot;
layers = (
{
layerId = m01;
name = Regular;
shapes = (
{
closed = 1;
nodes = (
(112,7,o),
(143,39,o),
(143,75,cs),
(143,112,o),
(112,143,o),
(75,143,cs),
(39,143,o),
(7,112,o),
(7,75,cs),
(7,39,o),
(39,7,o),
(75,7,cs)
);
}
);
width = 150;
}
);
metricLeft = "=7";
metricRight = "=7";
}
{
category = Letter;
glyphname = "ain-ar.fina";
kernRight = beh;
layers = (
{
anchors = (
{
name = damma;
pos = (22,0);
},
{
name = entry;
pos = (268,0);
},
{
name = fatha;
pos = (141,445);
},
{
name = kasra;
pos = (330,-380);
},
{
name = top;
pos = (34,314);
}
);
backgroundImage = {
alpha = 80;
angle = -1.3;
imagePath = "images/seen-ar.init.2.jpg";
locked = 1;
pos = (-93,-667);
scale = (14.67,14.67);
};
layerId = m01;
shapes = (
{
closed = 1;
nodes = (
(544,-629,o),
(708,-574,o),
(854,-445,cs),
(863,-438,o),
(859,-429,o),
(848,-435,cs),
(712,-506,o),
(579,-519,o),
(445,-504,cs),
(294,-488,o),
(199,-405,o),
(199,-274,cs),
(199,-227,o),
(222,-112,o),
(251,39,c),
(222,0,l),
(294,0,l),
(294,110,l),
(241,110,l),
(266,99,l),
(262,205,o),
(261,304,o),
(254,418,cs),
(253,425,o),
(248,427,o),
(244,415,cs),
(229,369,o),
(172,307,o),
(141,260,c),
(192,224,l),
(155,275,o),
(129,324,o),
(84,369,cs),
(81,372,o),
(76,373,o),
(73,365,cs),
(66,343,o),
(27,294,o),
(2,255,c),
(-1,250,o),
(-1,246,o),
(4,241,cs),
(67,163,o),
(183,36,o),
(167,-36,c),
(183,40,l),
(159,-75,o),
(113,-299,o),
(117,-414,cs),
(121,-539,o),
(241,-625,o),
(408,-626,cs)
);
},
{
closed = 1;
nodes = (
(294,110,l),
(277,117,o),
(262,125,o),
(262,208,c),
(251,110,l)
);
}
);
width = 268;
}
);
metricLeft = "=0";
metricRight = "=3@157";
script = arabic;
sortName = arL0036;
sortNameKeep = arL0036;
}
{
category = Letter;
color = 7;
glyphname = "ain-ar.hist";
kernRight = hah.init;
layers = (
{
anchors = (
{
name = damma;
pos = (-39,5);
},
{
name = fatha;
pos = (270,330);
},
{
name = kasra;
pos = (633,-45);
},
{
name = top;
pos = (252,246);
}
);
layerId = m01;
shapes = (
{
closed = 1;
nodes = (
(757,0,l),
(728,-7,l),
(753,12,o),
(790,52,o),
(852,81,c),
(846,69,l),
(712,62,o),
(558,66,o),
(435,96,cs),
(324,124,o),
(235,214,o),
(273,255,cs),
(338,328,l),
(330,335,l),
(209,201,ls),
(171,159,o),
(208,88,o),
(300,55,c),
(298,73,l),
(234,73,o),
(218,75,o),
(183,118,cs),
(159,151,o),
(137,163,o),
(100,158,cs),
(56,153,o),
(0,99,o),
(0,30,cs),
(0,-31,o),
(28,-66,o),
(83,-85,cs),
(195,-124,o),
(507,-66,o),
(580,-16,c),
(581,-20,l),
(220,-20,ls),
(148,-20,o),
(91,6,o),
(70,53,c),
(89,57,l),
(108,18,o),
(154,0,o),
(225,0,cs)
);
}
);
width = 847;
}
);
metricLeft = "=0";
metricRight = "=20";
script = arabic;
sortName = arL0035.hist;
sortNameKeep = arL0035;
}
{
category = Letter;
glyphname = "ain-ar.init";
kernLeft = ain.init;
kernRight = hah.init;
layers = (
{
anchors = (
{
name = damma;
pos = (0,175);
},
{
name = exit;
},
{
name = fatha;
pos = (130,440);
},
{
name = kasra;
pos = (360,-84);
},
{
name = top;
pos = (175,387);
}
);
layerId = m01;
shapes = (
{
closed = 1;
nodes = (
(220,-3,o),
(448,0,o),
(688,0,cs),
(694,0,o),
(701,0,o),
(708,7,cs),
(730,27,o),
(759,54,o),
(800,78,cs),
(803,80,o),
(803,84,o),
(799,84,cs),
(643,78,o),
(470,84,o),
(329,119,cs),
(193,153,o),
(84,263,o),
(130,314,cs),
(210,403,ls),
(217,411,o),
(208,419,o),
(201,412,cs),
(27,222,ls),
(-19,171,o),
(36,91,o),
(108,76,c),
(124,110,l),
(-20,110,l),
(-20,0,l)
);
}
);
width = 802;
}
);
metricLeft = "=-20";
metricRight = "=0";
script = arabic;
sortName = arL0038;
sortNameKeep = arL0038;
}
{
category = Letter;
glyphname = "ain-ar.init.hah";
layers = (
{
anchors = (
{
name = damma;
pos = (0,175);
},
{
name = exit;
pos = (30,0);
},
{
name = fatha;
pos = (130,440);
},
{
name = kasra;
pos = (360,-84);
},
{
name = top;
pos = (175,387);
}
);
layerId = m01;
shapes = (
{
closed = 1;
nodes = (
(233,-3,o),
(578,0,o),
(818,0,cs),
(824,0,o),
(831,0,o),
(838,7,cs),
(860,27,o),
(889,54,o),
(930,78,cs),
(933,80,o),
(933,84,o),
(929,84,cs),
(773,78,o),
(470,84,o),
(329,119,cs),
(193,153,o),
(84,263,o),
(130,314,cs),
(210,403,ls),
(217,411,o),
(208,419,o),
(201,412,cs),
(27,222,ls),
(-19,171,o),
(36,91,o),
(108,76,c),
(124,111,l),
(84,104,o),
(57,99,o),
(20,119,c),
(-12,0,l)
);
}
);
width = 932;
}
);
metricRight = "=0";
production = ainar.init.hah;
script = arabic;
sortName = arL0038.hah;
sortNameKeep = arL0038.hah;
}
{
category = Letter;
color = 7;
glyphname = "ain-ar.init.hist";
kernLeft = ain.init;
kernRight = hah.init;
layers = (
{
anchors = (
{
name = damma;
pos = (-80,175);
},
{
name = exit;
},
{
name = fatha;
pos = (142,413);
},
{
name = kasra;
pos = (260,-84);
},
{
name = top;
pos = (50,243);
}
);
layerId = m01;
name = Regular;
shapes = (
{
closed = 1;
nodes = (
(563,0,l),
(534,-7,l),
(559,12,o),
(596,52,o),
(658,81,c),
(652,69,l),
(518,62,o),
(364,66,o),
(241,96,cs),
(130,124,o),
(41,214,o),
(79,255,cs),
(144,328,l),
(136,335,l),
(15,201,ls),
(-23,159,o),
(14,88,o),
(106,55,c),
(104,70,l),
(-20,70,l),
(-20,0,l)
);
}
);
width = 653;
}
);
metricLeft = "=0@163";
metricRight = "=20";
script = arabic;
sortName = arL0038.hist;
sortNameKeep = arL0038;
}
{
category = Letter;
glyphname = "ain-ar.medi";
kernRight = beh;
layers = (
{
anchors = (
{
name = damma;
pos = (-105,175);
},
{
name = entry;
pos = (247,0);
},
{
name = exit;
},
{
name = fatha;
pos = (92,460);
},
{
name = kasra;
pos = (136,-109);
},
{
name = top;
pos = (-42,312);
}
);
layerId = m01;
shapes = (
{
closed = 1;
nodes = (
(273,0,l),
(273,110,l),
(188,110,l),
(239,87,l),
(246,182,o),
(241,305,o),
(218,405,cs),
(216,411,o),
(213,411,o),
(210,406,cs),
(169,350,o),
(121,299,o),
(70,252,c),
(154,248,l),
(106,279,o),
(57,317,o),
(24,362,cs),
(21,365,o),
(19,365,o),
(17,362,cs),
(-15,319,o),
(-49,277,o),
(-88,244,cs),
(-93,239,o),
(-94,236,o),
(-90,233,cs),
(-42,184,o),
(14,141,o),
(73,101,c),
(95,110,l),
(-20,110,l),
(-20,0,l)
);
},
{
closed = 1;
nodes = (
(273,110,l),
(256,117,o),
(241,125,o),
(241,208,c),
(230,110,l)
);
}
);
width = 247;
}
);
metricLeft = "=-20@0";
metricRight = "=3@157";
script = arabic;
sortName = arL0037;
sortNameKeep = arL0037;
}
{
category = Letter;
glyphname = "alef-ar.fina";
kernLeft = alef.fina;
kernRight = beh;
layers = (
{
anchors = (
{
name = damma;
pos = (-66,61);
},
{
name = entry;
pos = (97,0);
},
{
name = fatha;
pos = (145,750);
},
{
name = kasra;
pos = (67,-56);
},
{
name = madda;
pos = (-76,735);
}
);
backgroundImage = {
alpha = 80;
imagePath = "images/alef-ar.fina.jpg";
pos = (-178,-215);
scale = (14.67,14.67);
};
layerId = m01;
shapes = (
{
closed = 1;
nodes = (
(121,110,l),
(114,111,o),
(94,119,o),
(92,183,cs),
(86,362,o),
(99,798,o),
(95,893,cs),
(95,903,o),
(88,910,o),
(82,893,cs),
(69,856,o),
(26,797,o),
(7,785,cs),
(-5,777,o),
(-9,775,o),
(1,756,cs),
(9,742,o),
(8,725,o),
(9,698,cs),
(15,528,o),
(4,253,o),
(0,31,cs),
(0,14,o),
(6,4,o),
(44,2,cs),
(70,0,o),
(95,0,o),
(121,0,c)
);
}
);
width = 97;
}
);
metricLeft = "=0@55";
metricRight = "=3@157";
script = arabic;
sortName = arL0005;
sortNameKeep = arL0005;
}
{
category = Letter;
glyphname = "alef-ar.fina.kashida";
kernLeft = alef.fina;
layers = (
{
anchors = (
{
name = damma;
pos = (-66,61);
},
{
name = entry;
pos = (187,0);
},
{
name = fatha;
pos = (145,750);
},
{
name = kasra;
pos = (44,-86);
},
{
name = madda;
pos = (-76,735);
}
);
backgroundImage = {
alpha = 80;
angle = -1.88885;
imagePath = "images/CBL-MS-1407-000002.png";
locked = 1;
pos = (-4585,-3502);
scale = (3.4,3.4);
};
layerId = m01;
shapes = (
{
closed = 1;
nodes = (
(211,110,l),
(151,110,o),
(94,154,o),
(89,290,cs),
(86,367,o),
(99,798,o),
(95,893,cs),
(95,903,o),
(88,910,o),
(82,893,cs),
(69,856,o),
(26,797,o),
(7,785,cs),
(-5,777,o),
(-9,775,o),
(1,756,cs),
(9,742,o),
(8,725,o),
(9,698,cs),
(15,528,o),
(4,259,o),
(0,37,cs),
(0,20,o),
(6,1,o),
(44,0,cs),
(70,-1,o),
(185,0,o),
(211,0,c)
);
}
);
width = 211;
}
);
metricRight = "=0";
production = alefar.fina.kashida;
script = arabic;
sortName = arL0005.kashida;
sortNameKeep = arL0005.kashida;
}
{
category = Letter;
glyphname = "alef-ar.fina.short";
kernLeft = alef.fina;
kernRight = beh;
layers = (
{
anchors = (
{
name = damma;
pos = (-67,61);
},
{
name = entry;
pos = (97,0);
},
{
name = fatha;
pos = (144,750);
},
{
name = kasra;
pos = (66,-56);
},
{
name = madda;
pos = (-77,645);
}
);
layerId = m01;
shapes = (
{
closed = 1;
nodes = (
(120,110,l),
(113,111,o),
(95,119,o),
(95,183,cs),
(96,362,o),
(107,645,o),
(84,793,cs),
(82,803,o),
(77,810,o),
(71,793,cs),
(58,756,o),
(25,707,o),
(6,695,cs),
(-6,687,o),
(-5,687,o),
(0,666,cs),
(30,527,o),
(0,70,o),
(-1,31,cs),
(-1,14,o),
(5,4,o),
(43,2,cs),
(69,0,o),
(94,0,o),
(120,0,c)
);
}
);
width = 99;
}
);
metricLeft = "=0@55";
metricRight = "=3@157";
script = arabic;
sortName = arL0005.short;
sortNameKeep = arL0005.short;
}
{
category = Letter;
glyphname = "alefMaksura-ar.fina.salt";
kernRight = yeh;
layers = (
{
anchors = (
{
name = bottom;
pos = (267,-610);
},
{
name = damma;
pos = (-30,24);
},
{
name = entry;
pos = (311,0);
},
{
name = fatha;
pos = (182,251);
},
{
name = kasra;
pos = (337,-271);
}
);
backgroundImage = {
alpha = 80;
imagePath = "images/CBL-MS-1407-000004.png";
locked = 1;
pos = (-1031,-963);
scale = (0.9,0.9);
};
layerId = m01;
shapes = (
{
closed = 1;
nodes = (
(267,-651,o),
(279,-644,o),
(279,-620,cs),
(280,-424,o),
(282,-231,o),
(288,-44,cs),
(289,-26,o),
(287,-14,o),
(272,-14,cs),
(183,-12,o),
(150,7,o),
(120,60,cs),
(115,69,o),
(126,75,o),
(132,66,cs),
(181,-12,o),
(238,1,o),
(311,0,c),
(311,117,l),
(257,138,o),
(235,213,o),
(163,213,cs),
(70,213,o),
(0,100,o),
(0,18,cs),
(0,-87,o),
(77,-107,o),
(151,-110,cs),
(187,-111,o),
(204,-137,o),
(204,-178,cs),
(204,-310,o),
(206,-404,o),
(199,-535,c),
(147,-539,o),
(89,-534,o),
(46,-511,c),
(43,-510,o),
(24,-510,o),
(22,-513,cs),
(-7,-549,o),
(-54,-590,o),
(-87,-605,cs),
(-91,-607,o),
(-74,-610,o),
(-70,-612,cs),
(-9,-647,o),
(89,-644,o),
(245,-650,cs)
);
}
);
width = 311;
}
);
metricLeft = "=0@19";
metricRight = "=0@0";
script = arabic;
sortName = arL0080b;
sortNameKeep = arL0080b;
}
{
category = Letter;
glyphname = "alefMaksura-ar.fina.tooth";
layers = (
{
anchors = (
{
name = bottom;
pos = (365,-202);
},
{
name = damma;
pos = (-93,-96);
},
{
name = entry;
pos = (11,-1);
},
{
name = fatha;
pos = (-85,272);
},
{
name = kasra;
pos = (26,-305);
}
);
layerId = m01;
shapes = (
{
closed = 1;
nodes = (
(347,-226,o),
(388,-202,o),
(385,-166,cs),
(381,-119,o),
(363,-78,o),
(341,-37,cs),
(335,-26,o),
(322,-19,o),
(310,-19,cs),
(131,-19,ls),
(101,-19,o),
(104,22,o),
(104,51,c),
(0,188,l),
(0,91,o),
(-1,-39,o),
(2,-87,cs),
(3,-106,o),
(6,-113,o),
(25,-116,cs),
(106,-126,o),
(180,-123,o),
(240,-120,c),
(244,-131,o),
(247,-132,o),
(247,-142,c),
(203,-142,o),
(64,-155,o),
(-4,-130,cs),
(-7,-129,o),
(-9,-129,o),
(-11,-132,cs),
(-30,-159,o),
(-71,-187,o),
(-129,-218,cs),
(-133,-220,o),
(-133,-223,o),
(-129,-224,cs),
(-29,-249,o),
(251,-242,o),
(313,-232,cs)
);
}
);
width = 385;
}
);
metricLeft = "=0@0";
metricRight = "=0";
script = arabic;
sortName = arL0080e;
sortNameKeep = arL0080e;
}
{
category = Letter;
glyphname = "alefMaksura-ar.salt";
layers = (
{
anchors = (
{
name = bottom;
pos = (317,-596);
},
{
name = damma;
pos = (-59,74);
},
{
name = fatha;
pos = (170,301);
},
{
name = kasra;
pos = (424,-251);
}
);
backgroundImage = {
alpha = 80;
imagePath = "images/alefMaksura-ar.jpg";
locked = 1;
pos = (-814,-783);
scale = (14.67,14.67);
};
layerId = m01;
shapes = (
{
closed = 1;
nodes = (
(210,-639,o),
(256,-637,o),
(304,-631,cs),
(326,-629,o),
(341,-620,o),
(341,-596,cs),
(345,-400,o),
(352,-178,o),
(347,10,cs),
(347,28,o),
(345,46,o),
(326,44,cs),
(266,36,o),
(166,35,o),
(119,91,cs),
(115,96,o),
(121,105,o),
(128,98,cs),
(159,67,o),
(228,44,o),
(269,65,cs),
(294,77,o),
(325,108,o),
(336,183,c),
(250,166,o),
(231,235,o),
(156,235,cs),
(57,235,o),
(0,133,o),
(0,51,cs),
(0,-86,o),
(146,-89,o),
(240,-81,cs),
(256,-79,o),
(265,-98,o),
(265,-139,cs),
(265,-271,o),
(265,-385,o),
(258,-516,c),
(204,-520,o),
(143,-519,o),
(86,-505,c),
(55,-545,o),
(14,-594,o),
(-19,-622,c),
(38,-633,o),
(99,-639,o),
(166,-639,cs)
);
}
);
width = 349;
}
);
metricLeft = "=0@51";
metricRight = "=0";
script = arabic;
sortName = arL0079b;
sortNameKeep = arL0079b;
}
{
category = Letter;
color = 9;
glyphname = "behDotless-ar.fina";
kernRight = beh;
layers = (
{
anchors = (
{
name = bottom;
pos = (1164,-44);
},
{
name = damma;
pos = (-42,50);
},
{
name = entry;
pos = (1304,0);
},
{
name = fatha;
pos = (1225,448);
},
{
name = kasra;
pos = (974,-67);
},
{
name = top;
pos = (1193,323);
}
);
layerId = m01;
shapes = (
{
closed = 1;
nodes = (
(1327,110,l),
(1320,111,o),
(1303,119,o),
(1298,179,cs),
(1290,264,o),
(1269,331,o),
(1248,378,cs),
(1246,382,o),
(1244,381,o),
(1243,378,cs),
(1214,334,o),
(1179,293,o),
(1134,268,cs),
(1127,264,o),
(1125,260,o),
(1129,256,cs),
(1170,204,o),
(1200,138,o),
(1197,62,c),
(1243,110,l),
(1009,70,o),
(508,86,o),
(271,92,cs),
(227,93,o),
(177,95,o),
(136,110,cs),
(132,111,o),
(130,109,o),
(128,108,cs),
(88,65,o),
(47,30,o),
(4,9,cs),
(0,7,o),
(-2,4,o),
(4,4,cs),
(121,2,o),
(1210,0,o),
(1327,0,c)
);
}
);
width = 1304;
},
{
anchors = (
{
name = bottom;
pos = (5860,-44);
},
{
name = damma;
pos = (-42,50);
},
{
name = entry;
pos = (6000,0);
},
{
name = fatha;
pos = (5921,448);
},
{
name = kasra;
pos = (5670,-67);
},
{
name = top;
pos = (1193,323);
}
);
associatedMasterId = m01;
attr = {
coordinates = (
0,
100
);
};
layerId = "F12C8E8A-FF78-45E3-A48F-D527A8739E99";
name = "17 May 23 at 02:25";
shapes = (
{
closed = 1;
nodes = (
(6023,110,l),
(6016,111,o),
(5999,119,o),
(5994,179,cs),
(5986,264,o),
(5965,331,o),
(5944,378,cs),
(5942,382,o),
(5940,381,o),
(5939,378,cs),
(5910,334,o),
(5875,293,o),
(5830,268,cs),
(5823,264,o),
(5821,260,o),
(5825,256,cs),
(5866,204,o),
(5896,138,o),
(5893,62,c),
(5939,110,l),
(5705,70,o),
(508,86,o),
(271,92,cs),
(227,93,o),
(177,95,o),
(136,110,cs),
(132,111,o),
(130,109,o),
(128,108,cs),
(88,65,o),
(47,30,o),
(4,9,cs),
(0,7,o),
(-2,4,o),
(4,4,cs),
(121,2,o),
(5906,0,o),
(6023,0,c)
);
}
);
width = 6000;
},
{
anchors = (
{
name = bottom;
pos = (364,-44);
},
{
name = damma;
pos = (-42,50);
},
{
name = entry;
pos = (504,0);
},
{
name = fatha;
pos = (425,448);
},
{
name = kasra;
pos = (274,-67);
},
{
name = top;
pos = (393,323);
}
);
associatedMasterId = m01;
attr = {
coordinates = (
0,
0
);
};
layerId = "0EF9B9D9-058E-4647-B518-1DB8D2AF4DB1";
name = "{0, 0} 23 Sep 25 at 11:57";
shapes = (
{
closed = 1;
nodes = (
(527,110,l),
(520,111,o),
(503,119,o),
(498,179,cs),
(490,264,o),
(469,331,o),
(448,378,cs),
(446,382,o),
(444,381,o),
(443,378,cs),
(414,334,o),
(379,293,o),
(334,268,cs),
(327,264,o),
(325,260,o),
(329,256,cs),
(370,204,o),
(400,138,o),
(397,62,c),
(443,110,l),
(379,99,o),
(302,92,o),
(226,96,cs),
(191,97,o),
(159,102,o),
(136,110,cs),
(132,111,o),
(130,109,o),
(128,108,cs),
(88,65,o),
(47,30,o),
(4,9,cs),
(0,7,o),
(-2,4,o),
(4,4,cs),
(121,2,o),
(410,0,o),
(527,0,c)
);
}
);
width = 504;
}
);
metricLeft = "=0";
metricRight = "=3@157";
script = arabic;
sortName = arL0009;
sortNameKeep = arL0009;
}
{
category = Letter;
glyphname = "behDotless-ar.init";
kernLeft = beh.init;
kernRight = beh.init;
layers = (
{
anchors = (
{
name = bottom;
pos = (98,21);
},
{
name = damma;
pos = (-4,207);
},
{
name = exit;
},
{
name = fatha;
pos = (92,535);
},
{
name = kasra;
pos = (83,-83);
},
{
name = top;
pos = (56,373);
}
);
backgroundImage = {
alpha = 80;
imagePath = "images/behDotless-ar.init.jpg";
locked = 1;
pos = (-423,-546);
scale = (14.67,14.67);
};
layerId = m01;
shapes = (
{
closed = 1;
nodes = (
(68,0,ls),
(96,0,o),
(121,11,o),
(119,35,cs),
(111,183,o),
(109,223,o),
(102,413,cs),
(102,420,o),
(97,420,o),
(93,414,cs),
(68,373,o),
(36,324,o),
(12,302,cs),
(7,297,o),
(6,293,o),
(7,286,cs),
(15,197,o),
(15,182,o),
(18,62,c),
(44,110,l),
(-20,110,l),
(-20,0,l)
);
}
);
width = 119;
}
);
metricLeft = "=-20";
metricRight = "=0";
script = arabic;
sortName = arL0012;
sortNameKeep = arL0012;
}
{
category = Letter;
glyphname = "behDotless-ar.init.hah";
layers = (
{
anchors = (
{
name = bottom;
pos = (115,262);
},
{
name = damma;
pos = (-22,250);
},
{
name = exit;
pos = (-79,115);
},
{
name = fatha;
pos = (82,525);
},
{
name = kasra;
pos = (97,59);
},
{
name = top;
pos = (22,367);
}
);
backgroundImage = {
alpha = 80;
angle = 0.38163;
imagePath = "images/MS-Arabe-350-0000005.png";
pos = (-1798,-662);
scale = (2.25,2.25);
};
layerId = m01;
shapes = (
{
closed = 1;
nodes = (
(-16,277,o),
(5,83,o),
(7,55,c),
(101,55,l),
(101,63,o),
(70,396,o),
(66,427,cs),
(65,435,o),
(59,436,o),
(55,428,cs),
(22,367,o),
(17,360,o),
(-15,331,cs),
(-26,322,o),
(-23,314,o),
(-21,305,cs)
);
}
);
width = 101;
}
);
metricLeft = "=0@130";
metricRight = "=0";
production = behDotlessar.init.hah;
script = arabic;
sortName = arL0012.hah;
sortNameKeep = arL0012.hah;
}
{
category = Letter;
glyphname = "behDotless-ar.init.high";
kernLeft = beh.init;
kernRight = beh.init;
layers = (
{
anchors = (
{
name = bottom;
pos = (101,21);
},
{
name = damma;
pos = (-1,175);
},
{
name = exit;
},
{
name = fatha;
pos = (92,608);
},
{
name = kasra;
pos = (86,-83);
},
{
name = top;
pos = (56,446);
}
);
layerId = m01;
shapes = (
{
closed = 1;
nodes = (
(71,0,ls),
(99,0,o),
(124,11,o),
(122,35,cs),
(114,183,o),
(110,296,o),
(103,486,cs),
(103,493,o),
(98,493,o),
(94,487,cs),
(69,446,o),
(36,399,o),
(12,377,cs),
(7,372,o),
(6,368,o),
(7,361,cs),
(14,272,o),
(18,182,o),
(18,62,c),
(47,110,l),
(-20,110,l),
(-20,0,l)
);
}
);
width = 122;
}
);
metricLeft = "=-20@0";
metricRight = "=0";
script = arabic;
sortName = arL0013;
sortNameKeep = arL0013;
}
{
category = Letter;
glyphname = "behDotless-ar.init.med";
kernLeft = beh.init;
kernRight = beh.init;
layers = (
{
anchors = (
{
name = bottom;
pos = (101,21);
},
{
name = damma;
pos = (-1,175);
},
{
name = exit;
},
{
name = fatha;
pos = (92,558);
},
{
name = kasra;
pos = (86,-83);
},
{
name = top;
pos = (56,396);
}
);
layerId = m01;
shapes = (
{
closed = 1;
nodes = (
(71,0,ls),
(99,0,o),
(124,11,o),
(122,35,cs),
(114,183,o),
(110,246,o),
(103,436,cs),
(103,443,o),
(98,443,o),
(94,437,cs),
(69,396,o),
(36,349,o),
(12,327,cs),
(7,322,o),
(6,318,o),
(7,311,cs),
(14,222,o),
(18,182,o),
(18,62,c),
(47,110,l),
(-20,110,l),
(-20,0,l)
);
}
);
width = 122;
}
);
metricLeft = "=-20";
metricRight = "=0";
production = behDotlessar.init.med;
script = arabic;
sortName = arL0012.med;
sortNameKeep = arL0012.med;
}
{
category = Letter;
glyphname = "behDotless-ar.medi";
kernLeft = beh;
kernRight = beh;
layers = (
{
anchors = (
{
name = bottom;
pos = (46,-48);
},
{
name = c.beh;
pos = (81,234);
},
{
name = damma;
pos = (-3,191);
},
{
name = entry;
pos = (107,0);
},
{
name = exit;
},
{
name = fatha;
pos = (84,479);
},
{
name = kasra;
pos = (48,-73);
},
{
name = top;
pos = (48,317);
}
);
layerId = m01;
shapes = (
{
closed = 1;
nodes = (
(32,0,o),
(81,0,o),
(133,0,c),
(133,110,l),
(107,110,l),
(102,204,o),
(100,203,o),
(94,356,cs),
(94,363,o),
(89,363,o),
(85,357,cs),
(60,317,o),
(31,276,o),
(7,254,cs),
(2,249,o),
(1,244,o),
(2,237,cs),
(10,181,o),
(10,149,o),
(10,110,c),
(-8,110,o),
(-2,110,o),
(-20,110,c),
(-20,0,l)
);
},
{
closed = 1;
nodes = (
(133,110,l),
(116,117,o),
(101,125,o),
(101,208,c),
(90,110,l)
);
}
);
width = 107;
}
);
metricLeft = "=-20@0";
metricRight = "=3@157";
script = arabic;
sortName = arL0010a;
sortNameKeep = arL0010a;
}
{
category = Letter;
glyphname = "behDotless-ar.medi.med";
kernLeft = beh;
kernRight = beh;
layers = (
{
anchors = (
{
name = bottom;
pos = (46,-38);
},
{
name = damma;
pos = (-3,191);
},
{
name = entry;
pos = (109,0);
},
{
name = exit;
},
{
name = fatha;
pos = (84,559);
},
{
name = kasra;
pos = (48,-73);
},
{
name = top;
pos = (48,397);
}
);
layerId = m01;
shapes = (
{
closed = 1;
nodes = (
(32,0,o),
(83,0,o),
(135,0,c),
(135,110,l),
(107,110,l),
(102,204,o),
(100,283,o),
(94,436,cs),
(94,443,o),
(89,443,o),
(85,437,cs),
(60,397,o),
(27,350,o),
(3,328,cs),
(-2,323,o),
(-3,318,o),
(-2,311,cs),
(8,235,o),
(10,189,o),
(10,110,c),
(-8,110,o),
(-2,110,o),
(-20,110,c),
(-20,0,l)
);
},
{
closed = 1;
nodes = (
(135,110,l),
(118,117,o),
(103,125,o),
(103,208,c),
(92,110,l)
);
}
);
width = 109;
}
);
metricLeft = "=-20@0";
metricRight = "=3@157";
script = arabic;
sortName = arL0010c;
sortNameKeep = arL0010c;
}
{
category = Letter;
glyphname = "behDotless-ar.medi.round";
kernRight = beh;
layers = (
{
anchors = (
{
name = bottom;
pos = (65,-40);
},
{
name = damma;
pos = (-22,157);
},
{
name = entry;
pos = (91,0);
},
{
name = exit;
},
{
name = fatha;
pos = (55,480);
},
{
name = kasra;
pos = (72,-65);
},
{
name = top;
pos = (24,356);
}
);
backgroundImage = {
alpha = 80;
angle = -0.3;
imagePath = "images/behDotless-ar.medi.kaf.jpg";
pos = (-742,-277);
scale = (14.67,14.67);
};
layerId = m01;
shapes = (
{
closed = 1;
nodes = (
(117,0,l),
(117,110,l),
(91,110,l),
(87,169,o),
(77,304,o),
(75,391,cs),
(75,398,o),
(71,397,o),
(67,391,cs),
(43,350,o),
(10,304,o),
(-12,281,cs),
(-16,276,o),
(-19,271,o),
(-18,265,cs),
(-10,174,o),
(-9,148,o),
(1,65,cs),
(4,41,o),
(18,0,o),
(65,0,c)
);
},
{
closed = 1;
nodes = (
(117,110,l),
(100,117,o),
(85,125,o),
(85,208,c),
(74,110,l)
);
}
);
width = 91;
}
);
metricRight = "=3@157";
script = arabic;
sortName = arL0010e;
sortNameKeep = arL0010e;
}
{
category = Letter;
glyphname = "behDotless-ar.medi.round.kashida";
layers = (
{
anchors = (
{
name = bottom;
pos = (65,-40);
},
{
name = damma;
pos = (-22,237);
},
{
name = entry;
pos = (162,0);
},
{
name = exit;
},
{
name = fatha;
pos = (55,480);
},
{
name = kasra;
pos = (82,-65);
},
{
name = top;
pos = (24,356);
}
);
backgroundImage = {
alpha = 80;
angle = -0.3;
imagePath = "images/behDotless-ar.medi.kaf.jpg";
locked = 1;
pos = (-742,-277);
scale = (14.67,14.67);
};
layerId = m01;
shapes = (
{
closed = 1;
nodes = (
(188,0,l),
(188,110,l),
(148,110,o),
(126,115,o),
(108,158,cs),
(86,211,o),
(75,304,o),
(72,391,cs),
(72,398,o),
(68,397,o),
(64,391,cs),
(40,350,o),
(10,304,o),
(-12,281,cs),
(-16,276,o),
(-18,271,o),
(-18,265,cs),
(-12,174,o),
(-9,148,o),
(1,65,cs),
(4,41,o),
(18,0,o),
(65,0,c)
);
}
);
width = 162;
}
);
metricLeft = "=behDotless-ar.medi.round";
metricRight = "=-26";
production = behDotlessar.medi.round.kashida;
script = arabic;
sortName = arL0010e.kashida;
sortNameKeep = arL0010e.kashida;
}
{
category = Mark;
glyphname = "dotabove-ar.reh";
layers = (
{
anchors = (
{
name = _top;
pos = (69,50);
}
);
layerId = m01;
shapes = (
{
closed = 1;
nodes = (
(34,40,o),
(74,87,o),
(104,126,cs),
(106,129,o),
(105,131,o),
(104,133,cs),
(99,137,ls),
(97,139,o),
(94,139,o),
(92,136,cs),
(50,95,o),
(12,60,o),
(-16,34,cs),
(-19,33,o),
(-19,29,o),
(-16,27,cs),
(4,17,ls),
(6,16,o),
(9,16,o),
(11,18,cs)
);
}
);
width = 103;
}
);
production = dotabovear.reh;
script = arabic;
sortName = arM1060.reh;
sortNameKeep = arM1060.reh;
subCategory = Nonspacing;
}
{
category = Letter;
color = 9;
glyphname = "fehDotless-ar.fina";
kernRight = beh;
layers = (
{
anchors = (
{
name = bottom;
pos = (1180,-40);
},
{
name = damma;
pos = (-10,50);
},
{
name = entry;
pos = (1310,0);
},
{
name = fatha;
pos = (1125,546);
},
{
name = kasra;
pos = (601,-62);
},
{
name = top;
pos = (951,387);
}
);
backgroundImage = {
alpha = 80;
angle = 0.2;
imagePath = "images/fehDotless-ar.fina.jpg";
locked = 1;
pos = (-252,-224);
scale = (14.67,14.67);
};
layerId = m01;
shapes = (
{
closed = 1;
nodes = (
(1336,110,l),
(1239,110,l),
(1243,87,l),
(1272,92,o),
(1297,142,o),
(1302,184,cs),
(1309,259,o),
(1300,320,o),
(1277,372,cs),
(1241,457,o),
(1182,493,o),
(1115,484,cs),
(996,469,o),
(933,370,o),
(937,261,cs),
(942,150,o),
(1041,109,o),
(1148,89,c),
(1104,111,l),
(963,78,o),
(266,101,o),
(136,112,c),
(132,113,o),
(128,112,o),
(124,109,cs),
(83,77,o),
(43,40,o),
(3,16,cs),
(-2,13,o),
(0,4,o),
(6,4,cs),
(419,4,o),
(923,-2,o),
(1336,0,c)
);
},
{
closed = 1;
nodes = (
(1126,306,o),
(1121,311,o),
(1121,317,cs),
(1121,323,o),
(1126,328,o),
(1132,328,cs),
(1138,328,o),
(1143,323,o),
(1143,317,cs),
(1143,311,o),
(1138,306,o),
(1132,306,cs)
);
},
{
closed = 1;
nodes = (
(1336,110,l),
(1319,117,o),
(1304,125,o),
(1304,215,c),
(1263,110,l)
);
}
);
width = 1310;
},
{
anchors = (
{
name = bottom;
pos = (5870,-40);
},
{
name = damma;
pos = (-10,50);
},
{
name = entry;
pos = (6000,0);
},
{
name = fatha;
pos = (5815,546);
},
{
name = kasra;
pos = (601,-62);
},
{
name = top;
pos = (5641,387);
}
);
associatedMasterId = m01;
attr = {
coordinates = (
0,
100
);
};
layerId = "8DA8B023-25F4-4741-AFF4-D0E0186CAD99";
name = "{0, 100} 17 May 23 at 17:50";
shapes = (
{
closed = 1;
nodes = (
(6026,110,l),
(5929,110,l),
(5933,87,l),
(5962,92,o),
(5987,142,o),
(5992,184,cs),
(5999,259,o),
(5990,320,o),
(5967,372,cs),
(5931,457,o),
(5872,493,o),
(5805,484,cs),
(5686,469,o),
(5623,370,o),
(5627,261,cs),
(5632,150,o),
(5731,109,o),
(5838,89,c),
(5794,111,l),
(5653,78,o),
(266,101,o),
(136,112,c),
(132,113,o),
(128,112,o),
(124,109,cs),
(83,77,o),
(43,40,o),
(3,16,cs),
(-2,13,o),
(0,4,o),
(6,4,cs),
(419,4,o),
(5613,-2,o),
(6026,0,c)
);
},
{
closed = 1;
nodes = (
(5816,306,o),
(5811,311,o),
(5811,317,cs),
(5811,323,o),
(5816,328,o),
(5822,328,cs),
(5828,328,o),
(5833,323,o),
(5833,317,cs),
(5833,311,o),
(5828,306,o),
(5822,306,cs)
);
},
{
closed = 1;
nodes = (
(6026,110,l),
(6009,117,o),
(5994,125,o),
(5994,215,c),
(5953,110,l)
);
}
);
width = 6000;
},
{
anchors = (
{
name = bottom;
pos = (490,-40);
},
{
name = damma;
pos = (-10,50);
},
{
name = entry;
pos = (620,0);
},
{
name = fatha;
pos = (435,546);
},
{
name = kasra;
pos = (301,-62);
},
{
name = top;
pos = (261,387);
}
);
associatedMasterId = m01;
attr = {
coordinates = (
0,
0
);
};
layerId = "FF04A85A-4637-4F86-8F13-07935D0179A3";
name = "17 May 23 at 17:51";
shapes = (
{
closed = 1;
nodes = (
(646,110,l),
(549,110,l),
(553,87,l),
(582,92,o),
(607,142,o),
(612,184,cs),
(619,259,o),
(610,320,o),
(587,372,cs),
(551,457,o),
(492,493,o),
(425,484,cs),
(306,469,o),
(243,370,o),
(247,261,cs),
(252,150,o),
(351,109,o),
(458,89,c),
(414,111,l),
(305,105,o),
(239,106,o),
(136,112,cs),
(132,112,o),
(128,112,o),
(124,109,cs),
(83,77,o),
(43,40,o),
(3,16,cs),
(-2,13,o),
(0,4,o),
(6,4,cs),
(419,4,o),
(233,-2,o),
(646,0,c)
);
},
{
closed = 1;
nodes = (
(436,306,o),
(431,311,o),
(431,317,cs),
(431,323,o),
(436,328,o),
(442,328,cs),
(448,328,o),
(453,323,o),
(453,317,cs),
(453,311,o),
(448,306,o),
(442,306,cs)
);
},
{
closed = 1;
nodes = (
(646,110,l),
(629,117,o),
(614,125,o),
(614,215,c),
(573,110,l)
);
}
);
width = 620;
}
);
metricLeft = "=behDotless-ar";
metricRight = "=3@157";
script = arabic;
sortName = arL0040;
sortNameKeep = arL0040;
}
{
category = Letter;
glyphname = "fehDotless-ar.init";
kernRight = feh.init;
layers = (
{
anchors = (
{
name = bottom;
pos = (297,37);
},
{
name = damma;
pos = (-63,249);
},
{
name = exit;
},
{
name = fatha;
pos = (140,563);
},
{
name = kasra;
pos = (148,-72);
},
{
name = top;
pos = (25,444);
}
);
backgroundImage = {
alpha = 80;
angle = 0.1;
imagePath = "images/fehDotless-ar.init.jpg";
locked = 1;
pos = (-1409,-175);
scale = (14.67,14.67);
};
layerId = m01;
shapes = (
{
closed = 1;
nodes = (
(77,0,o),
(192,2,o),
(242,7,cs),
(323,15,o),
(332,43,o),
(332,118,cs),
(332,276,o),
(248,469,o),
(124,469,cs),
(26,469,o),
(-48,349,o),
(-48,256,cs),
(-48,213,o),
(-32,174,o),
(3,153,cs),
(58,120,o),
(149,125,o),
(212,133,c),
(218,122,l),
(156,110,o),
(57,109,o),
(-20,110,c),
(-20,0,l)
);
},
{
closed = 1;
nodes = (
(121,286,o),
(116,291,o),
(116,297,cs),
(116,303,o),
(121,308,o),
(127,308,cs),
(132,308,o),
(138,303,o),
(138,297,cs),
(138,291,o),
(132,286,o),
(127,286,cs)
);
}
);
width = 332;
}
);
metricLeft = "=-20@0";
metricRight = "=0";
script = arabic;
sortName = arL0042;
sortNameKeep = arL0042;
}
{
category = Letter;
glyphname = "fehDotless-ar.init.hah";
kernRight = feh.init;
layers = (
{
anchors = (
{
name = bottom;
pos = (418,28);
},
{
name = damma;
pos = (-13,284);
},
{
name = exit;
pos = (83,-6);
},
{
name = fatha;
pos = (215,554);
},
{
name = kasra;
pos = (223,-81);
},
{
name = top;
pos = (50,414);
}
);
layerId = m01;
shapes = (
{
closed = 1;
nodes = (
(378,0,o),
(436,16,o),
(436,67,cs),
(436,309,o),
(351,481,o),
(199,482,cs),
(85,483,o),
(-13,366,o),
(2,223,cs),
(10,144,o),
(107,95,o),
(296,114,c),
(297,97,l),
(185,85,o),
(67,92,o),
(8,156,c),
(8,3,l),
(48,-1,o),
(97,-2,o),
(146,-2,cs)
);
},
{
closed = 1;
nodes = (
(210,257,o),
(205,262,o),
(205,268,cs),
(205,274,o),
(210,279,o),
(216,279,cs),
(221,279,o),
(227,274,o),
(227,268,cs),
(227,262,o),
(221,257,o),
(216,257,cs)
);
}
);
width = 436;
}
);
metricLeft = "=0";
metricRight = "=0";
production = fehDotlessar.init.hah;
script = arabic;
sortName = arL0042.hah;
sortNameKeep = arL0042.hah;
}
{
category = Letter;
glyphname = "fehDotless-ar.init.yeh";
kernRight = feh.init;
layers = (
{
anchors = (
{
name = bottom;
pos = (424,28);
},
{
name = damma;
pos = (-7,284);
},
{
name = exit;
pos = (81,-7);
},
{
name = fatha;
pos = (221,524);
},
{
name = kasra;
pos = (229,-81);
},
{
name = top;
pos = (87,405);
}
);
backgroundImage = {
alpha = 80;
imagePath = "images/CBL-MS-1407-000003.png";
locked = 1;
pos = (-780,-856);
scale = (0.9,0.9);
};
layerId = m01;
shapes = (
{
closed = 1;
nodes = (
(384,-10,o),
(460,7,o),
(460,91,cs),
(460,174,o),
(430,247,o),
(400,307,cs),
(354,401,o),
(291,442,o),
(222,442,cs),
(118,442,o),
(22,345,o),
(22,231,cs),
(22,83,o),
(233,101,o),
(332,110,c),
(333,93,l),
(246,82,o),
(153,84,o),
(85,109,cs),
(74,113,o),
(63,119,o),
(54,126,c),
(0,-3,l),
(41,-8,o),
(102,-12,o),
(152,-12,cs)
);
},
{
closed = 1;
nodes = (
(236,257,o),
(231,262,o),
(231,268,cs),
(231,274,o),
(236,279,o),
(242,279,cs),
(247,279,o),
(253,274,o),
(253,268,cs),
(253,262,o),
(247,257,o),
(242,257,cs)
);
}
);
width = 460;
}
);
metricLeft = "=0";
metricRight = "=0";
production = fehDotlessar.init.yeh;
script = arabic;
sortName = arL0042.yeh;
sortNameKeep = arL0042.yeh;
}
{
category = Letter;
glyphname = "fehDotless-ar.medi.alt";
kernRight = beh;
layers = (
{
anchors = (
{
name = bottom;
pos = (135,-44);
},
{
name = damma;
pos = (-12,121);
},
{
name = entry;
pos = (289,0);
},
{
name = exit;
pos = (40,0);
},
{
name = fatha;
pos = (135,391);
},
{
name = kasra;
pos = (135,-82);
},
{
name = top;
pos = (56,308);
}
);
backgroundImage = {
alpha = 80;
angle = 1.7;
imagePath = "images/fehDotless-ar.medi.jpg";
locked = 1;
pos = (-1524,-684);
scale = (14.67,14.67);
};
layerId = m01;
shapes = (
{
closed = 1;
nodes = (
(269,0,l),
(269,168,ls),
(269,267,o),
(201,317,o),
(134,317,cs),
(43,317,o),
(0,247,o),
(0,175,cs),
(0,97,o),
(71,37,o),
(148,36,c),
(113,70,l),
(40,70,l),
(40,0,l)
);
},
{
pos = (169,0);
ref = _c.beh;
},
{
closed = 1;
nodes = (
(129,181,o),
(124,186,o),
(124,192,cs),
(124,198,o),
(129,203,o),
(135,203,cs),
(141,203,o),
(146,198,o),
(146,192,cs),
(146,186,o),
(141,181,o),
(135,181,cs)
);
}
);
width = 289;
}
);
metricLeft = "=0";
metricRight = "=behDotless-ar.medi";
script = arabic;
sortName = arL0041;
sortNameKeep = arL0041;
}
{
category = Letter;
glyphname = "fehDotless-ar.medi";
kernRight = beh;
layers = (
{
anchors = (
{
name = bottom;
pos = (223,-35);
},
{
name = damma;
pos = (3,172);
},
{
name = entry;
pos = (361,0);
},
{
name = exit;
},
{
name = fatha;
pos = (193,534);
},
{
name = kasra;
pos = (201,-82);
},
{
name = top;
pos = (87,405);
}
);
backgroundImage = {
alpha = 80;
angle = 1.7;
imagePath = "images/fehDotless-ar.medi.jpg";
locked = 1;
pos = (-1524,-684);
scale = (14.67,14.67);
};
layerId = m01;
shapes = (
{
closed = 1;
nodes = (
(384,0,l),
(384,110,l),
(299,110,l),
(305,48,l),
(334,100,o),
(355,180,o),
(354,255,cs),
(352,353,o),
(310,441,o),
(191,441,cs),
(104,441,o),
(15,360,o),
(15,251,cs),
(15,166,o),
(82,92,o),
(115,65,c),
(96,110,l),
(-20,110,l),
(-20,0,l)
);
},
{
closed = 1;
nodes = (
(186,274,o),
(181,279,o),
(181,285,cs),
(181,291,o),
(186,296,o),
(192,296,cs),
(198,296,o),
(203,291,o),
(203,285,cs),
(203,279,o),
(198,274,o),
(192,274,cs)
);
},
{
closed = 1;
nodes = (
(384,110,l),
(361,125,o),
(354,129,o),
(354,255,c),
(311,110,l)
);
}
);
width = 361;
}
);
metricLeft = "=-20";
metricRight = "=3@157";
script = arabic;
sortName = arL0041;
sortNameKeep = arL0041;
}
{
category = Letter;
glyphname = "fehDotless_alef-ar";
kernRight = feh.init;
layers = (
{
anchors = (
{
name = bottom_1;
pos = (537,28);
},
{
name = caret_1;
pos = (105,0);
},
{
name = damma_1;
pos = (118,192);
},
{
name = damma_2;
pos = (-87,61);
},
{
name = fatha_1;
pos = (334,554);
},
{
name = fatha_2;
pos = (124,800);
},
{
name = kasra_1;
pos = (342,-81);
},
{
name = kasra_2;
pos = (23,-66);
},
{
name = madda_2;
pos = (-57,785);
},
{
name = top_1;
pos = (246,502);
}
);
backgroundImage = {
alpha = 80;
imagePath = "images/lam-ar.jpg";
locked = 1;
pos = (-1192,-524);
scale = (14.67,14.67);
};
layerId = m01;
shapes = (
{
closed = 1;
nodes = (
(329,257,o),
(324,262,o),
(324,268,cs),
(324,274,o),
(329,279,o),
(335,279,cs),
(340,279,o),
(346,274,o),
(346,268,cs),
(346,262,o),
(340,257,o),
(335,257,cs)
);
},
{
closed = 1;
nodes = (
(86,459,o),
(114,885,o),
(100,993,cs),
(98,1010,o),
(87,1011,o),
(87,993,cs),
(87,984,o),
(31,905,o),
(12,885,cs),
(1,874,o),
(0,869,o),
(6,844,cs),
(10,825,o),
(11,804,o),
(11,777,cs),
(11,607,o),
(-5,359,o),
(-5,137,cs),
(-5,98,o),
(-3,48,o),
(30,19,cs),
(59,-7,o),
(161,-14,o),
(265,-13,cs),
(497,-11,o),
(555,16,o),
(555,67,cs),
(555,309,o),
(470,481,o),
(318,482,cs),
(204,483,o),
(106,366,o),
(121,223,cs),
(129,144,o),
(226,95,o),
(415,114,c),
(416,97,l),
(272,82,o),
(119,97,o),
(93,225,cs),
(87,254,o),
(86,312,o),
(86,382,cs)
);
}
);
width = 555;
}
);
metricLeft = "=alef-ar.fina";
metricRight = "=fehDotless-ar.init";
script = arabic;
sortName = arL0403;
sortNameKeep = arL0403;
subCategory = Ligature;
}
{
category = Letter;
color = 9;
glyphname = "hah-ar.fina";
kernRight = hah.init;
layers = (
{
anchors = (
{
name = bottom;
pos = (883,-78);
},
{
name = damma;
pos = (-90,31);
},
{
name = entry;
pos = (537,115);
},
{
name = fatha;
pos = (433,389);
},
{
name = kasra;
pos = (1082,-106);
},
{
name = top;
pos = (368,235);
}
);
backgroundImage = {
alpha = 80;
imagePath = "images/MS-Arabe-350-0000006.png";
locked = 1;
pos = (-1119,-879);
scale = (2.4,2.4);
};
layerId = m01;
shapes = (
{
closed = 1;
nodes = (
(456,-121,o),
(535,-114,o),
(673,-98,cs),
(764,-88,o),
(840,-45,o),
(882,-23,cs),
(886,-21,o),
(885,-17,o),
(880,-17,cs),
(655,-18,o),
(465,-25,o),
(321,-15,cs),
(240,-10,o),
(156,18,o),
(136,93,cs),
(133,106,o),
(152,111,o),
(156,99,cs),
(179,19,o),
(274,2,o),
(404,-4,cs),
(486,-7,o),
(893,-3,o),
(1131,7,cs),
(1152,7,o),
(1182,10,o),
(1202,23,cs),
(1229,41,o),
(1269,65,o),
(1305,80,cs),
(1310,82,o),
(1309,86,o),
(1304,86,cs),
(1174,83,o),
(1113,87,o),
(992,91,cs),
(908,94,o),
(781,132,o),
(715,151,cs),
(641,172,o),
(501,239,o),
(429,303,cs),
(426,305,o),
(424,305,o),
(422,302,cs),
(389,259,o),
(356,213,o),
(321,179,cs),
(318,176,o),
(318,174,o),
(321,172,cs),
(369,130,o),
(390,124,o),
(444,95,c),
(441,122,l),
(425,119,o),
(409,119,o),
(394,122,cs),
(343,132,o),
(297,174,o),
(252,218,cs),
(224,244,o),
(178,246,o),
(137,230,cs),
(37,191,o),
(-29,63,o),
(12,-26,cs),
(47,-103,o),
(118,-125,o),
(300,-123,cs)
);
}
);
width = 1308;
},
{
anchors = (
{
name = bottom;
pos = (883,-78);
},
{
name = damma;
pos = (-98,31);
},
{
name = entry;
pos = (920,115);
},
{
name = fatha;
pos = (806,412);
},
{
name = kasra;
pos = (1189,-85);
},
{
name = top;
pos = (741,258);
}
);
associatedMasterId = m01;
attr = {
coordinates = (
0,
20
);
};
layerId = "9CD22476-6F4A-4896-A8A4-64D8BEBC78EE";
name = "{0, 10} 17 May 23 at 17:57";
shapes = (
{
closed = 1;
nodes = (
(456,-104,o),
(541,-98,o),
(678,-82,cs),
(770,-71,o),
(855,-39,o),
(899,-17,cs),
(904,-15,o),
(903,-11,o),
(897,-11,cs),
(671,-12,o),
(465,-18,o),
(321,-9,cs),
(210,-2,o),
(156,18,o),
(136,93,cs),
(133,106,o),
(152,111,o),
(156,99,cs),
(179,19,o),
(261,14,o),
(402,9,c),
(178,9,o),
(1288,0,o),
(1511,7,cs),
(1532,7,o),
(1562,10,o),
(1582,23,cs),
(1609,41,o),
(1649,65,o),
(1685,80,cs),
(1690,82,o),
(1689,86,o),
(1684,86,cs),
(1554,83,o),
(1493,87,o),
(1372,91,cs),
(1288,94,o),
(1161,132,o),
(1095,151,cs),
(1021,172,o),
(881,239,o),
(809,303,c),
(806,305,o),
(804,305,o),
(802,302,cs),
(769,259,o),
(736,213,o),
(701,179,cs),
(698,176,o),
(698,174,o),
(701,172,cs),
(749,130,o),
(770,124,o),
(824,95,c),
(833,117,l),
(790,109,o),
(541,93,o),
(404,121,cs),
(320,139,o),
(279,194,o),
(256,216,cs),
(228,242,o),
(178,251,o),
(137,235,cs),
(37,196,o),
(-29,72,o),
(12,-17,cs),
(47,-94,o),
(118,-109,o),
(300,-106,cs)
);
}
);
width = 1688;
},
{
anchors = (
{
name = bottom;
pos = (883,-78);
},
{
name = damma;
pos = (-98,31);
},
{
name = entry;
pos = (920,115);
},
{
name = fatha;
pos = (806,412);
},
{
name = kasra;
pos = (1189,-85);
},
{
name = top;
pos = (741,258);
}
);
associatedMasterId = m01;
attr = {
coordinates = (
0,
100
);
};
layerId = "CA451A97-2056-4DD4-A001-0B8DFF813C4B";
name = "17 May 23 at 17:56";
shapes = (
{
closed = 1;
nodes = (
(456,-104,o),
(541,-98,o),
(678,-82,cs),
(770,-71,o),
(855,-39,o),
(899,-17,cs),
(904,-15,o),
(903,-11,o),
(897,-11,cs),
(671,-12,o),
(465,-18,o),
(321,-9,cs),
(210,-2,o),
(156,18,o),
(136,93,cs),
(133,106,o),
(152,111,o),
(156,99,cs),
(179,19,o),
(261,14,o),
(402,9,c),
(178,9,o),
(1288,0,o),
(1511,7,cs),
(1532,7,o),
(1562,10,o),
(1582,23,cs),
(1609,41,o),
(1649,65,o),
(1685,80,cs),
(1690,82,o),
(1689,86,o),
(1684,86,cs),
(1554,83,o),
(1493,87,o),
(1372,91,cs),
(1288,94,o),
(1161,132,o),
(1095,151,cs),
(1021,172,o),
(881,239,o),
(809,303,c),
(806,305,o),
(804,305,o),
(802,302,cs),
(769,259,o),
(736,213,o),
(701,179,cs),
(698,176,o),
(698,174,o),
(701,172,cs),
(749,130,o),
(770,124,o),
(824,95,c),
(833,117,l),
(790,109,o),
(541,93,o),
(404,121,cs),
(320,139,o),
(279,194,o),
(256,216,cs),
(228,242,o),
(178,251,o),
(137,235,cs),
(37,196,o),
(-29,72,o),
(12,-17,cs),
(47,-94,o),
(118,-109,o),
(300,-106,cs)
);
}
);
width = 1688;
}
);
metricLeft = "=0";
metricRight = "=0";
script = arabic;
sortName = arL0015;
sortNameKeep = arL0015;
}
{
category = Letter;
glyphname = "hah-ar.init";
kernLeft = hah;
kernRight = hah.init;
layers = (
{
anchors = (
{
name = bottom;
pos = (368,-54);
},
{
name = damma;
pos = (0,175);
},
{
name = exit;
},
{
name = fatha;
pos = (107,338);
},
{
name = kasra;
pos = (473,-52);
},
{
name = top;
pos = (59,215);
}
);
backgroundImage = {
alpha = 80;
angle = 0.5;
imagePath = "images/hah-ar.init.jpg";
locked = 1;
pos = (-335,-208);
scale = (14.67,14.67);
};
layerId = m01;
shapes = (
{
closed = 1;
nodes = (
(111,264,o),
(106,266,o),
(101,260,cs),
(67,218,o),
(38,186,o),
(12,169,cs),
(5,165,o),
(2,161,o),
(12,155,cs),
(67,120,o),
(158,83,o),
(215,64,c),
(205,110,l),
(-20,110,l),
(-20,0,l),
(170,2,o),
(392,4,o),
(555,4,cs),
(697,4,o),
(806,1,o),
(842,1,cs),
(851,1,o),
(884,0,o),
(896,11,cs),
(917,30,o),
(968,46,o),
(1017,68,cs),
(1023,71,o),
(1023,78,o),
(1018,78,cs),
(885,78,o),
(720,87,o),
(585,98,cs),
(467,106,o),
(274,161,o),
(115,262,c)
);
}
);
width = 1022;
}
);
metricLeft = "=-20";
metricRight = "=0";
script = arabic;
sortName = arL0017;
sortNameKeep = arL0017;
}
{
category = Letter;
glyphname = "hah-ar.init.hah";
kernLeft = hah;
kernRight = hah.init;
layers = (
{
anchors = (
{
name = bottom;
pos = (942,55);
},
{
name = damma;
pos = (-54,213);
},
{
name = exit;
pos = (40,0);
},
{
name = fatha;
pos = (54,386);
},
{
name = kasra;
pos = (473,-52);
},
{
name = top;
pos = (-3,260);
}
);
layerId = m01;
shapes = (
{
closed = 1;
nodes = (
(328,4,o),
(498,-2,o),
(829,-2,cs),
(883,-2,o),
(923,41,o),
(971,77,cs),
(977,81,o),
(977,87,o),
(972,87,cs),
(714,87,o),
(211,111,o),
(50,314,cs),
(47,318,o),
(43,318,o),
(38,312,cs),
(7,270,o),
(-18,234,o),
(-40,211,cs),
(-46,205,o),
(-52,202,o),
(-42,193,cs),
(7,148,o),
(136,63,o),
(215,44,c),
(124,111,l),
(83,104,o),
(53,106,o),
(20,126,c),
(-7,0,l)
);
}
);
width = 976;
}
);
metricRight = "=0";
production = hahar.init.hah;
script = arabic;
sortName = arL0017.hah;
sortNameKeep = arL0017.hah;
}
{
category = Letter;
glyphname = "hah-ar.medi";
kernLeft = hah;
kernRight = hah.init;
layers = (
{
anchors = (
{
name = bottom;
pos = (368,-54);
},
{
name = damma;
pos = (0,175);
},
{
name = entry;
pos = (231,115);
},
{
name = exit;
},
{
name = fatha;
pos = (76,331);
},
{
name = kasra;
pos = (473,-52);
},
{
name = top;
pos = (70,241);
}
);
backgroundImage = {
alpha = 80;
angle = 1.74003;
imagePath = "images/CBL-MS-1407-000005.png";
locked = 1;
pos = (-5244,-2491);
scale = (3.4,3.4);
};
layerId = m01;
shapes = (
{
closed = 1;
nodes = (
(388,-1,o),
(494,2,o),
(832,2,cs),
(841,2,o),
(873,7,o),
(886,17,cs),
(912,36,o),
(956,56,o),
(997,78,cs),
(1003,81,o),
(1003,85,o),
(998,85,cs),
(868,83,o),
(807,87,o),
(685,91,cs),
(602,94,o),
(474,131,o),
(409,150,cs),
(335,172,o),
(213,229,o),
(126,301,cs),
(122,304,o),
(118,305,o),
(114,299,cs),
(85,257,o),
(55,213,o),
(29,196,cs),
(22,192,o),
(17,186,o),
(27,178,cs),
(82,133,o),
(208,73,o),
(265,54,c),
(205,110,l),
(-20,110,l),
(-20,0,l)
);
}
);
width = 1002;
}
);
metricRight = "=0";
script = arabic;
sortName = arL0016;
sortNameKeep = arL0016;
}
{
category = Letter;
glyphname = "hah-ar.medi.hah";
kernLeft = hah;
kernRight = hah.init;
layers = (
{
anchors = (
{
name = bottom;
pos = (936,64);
},
{
name = damma;
pos = (-33,197);
},
{
name = entry;
pos = (178,115);
},
{
name = exit;
pos = (40,0);
},
{
name = fatha;
pos = (38,386);
},
{
name = kasra;
pos = (929,0);
},
{
name = top;
pos = (4,253);
}
);
layerId = m01;
shapes = (
{
closed = 1;
nodes = (
(331,4,o),
(494,0,o),
(832,0,cs),
(841,0,o),
(873,5,o),
(886,15,cs),
(912,34,o),
(936,54,o),
(977,76,cs),
(983,79,o),
(983,86,o),
(978,86,cs),
(845,86,o),
(620,83,o),
(485,94,cs),
(367,102,o),
(136,241,o),
(64,315,cs),
(61,319,o),
(57,319,o),
(52,313,cs),
(18,271,o),
(-9,231,o),
(-32,201,cs),
(-38,194,o),
(-43,191,o),
(-34,183,cs),
(38,119,o),
(128,83,o),
(210,64,c),
(124,111,l),
(83,104,o),
(52,106,o),
(18,127,c),
(-7,0,l)
);
}
);
width = 982;
}
);
metricRight = "=0";
production = hahar.medi.hah;
script = arabic;
sortName = arL0016.hah;
sortNameKeep = arL0016.hah;
}
{
category = Letter;
glyphname = "heh-ar.init.round";
kernRight = heh.init;
layers = (
{
anchors = (
{
name = damma;
pos = (-68,169);
},
{
name = exit;
},
{
name = fatha;
pos = (195,589);
},
{
name = kasra;
pos = (189,-103);
}
);
backgroundImage = {
alpha = 80;
angle = -0.8;
imagePath = "images/seen-ar.init.jpg";
locked = 1;
pos = (-974,-185);
scale = (14.67,14.67);
};
layerId = m01;
shapes = (
{
closed = 1;
nodes = (
(240,-15,o),
(290,-15,o),
(318,4,cs),
(330,13,o),
(341,25,o),
(338,39,cs),
(320,112,o),
(289,234,o),
(240,555,cs),
(238,569,o),
(225,565,o),
(225,552,cs),
(225,516,o),
(178,453,o),
(151,417,cs),
(148,412,o),
(148,409,o),
(148,403,cs),
(156,356,l),
(176,411,l),
(68,343,o),
(-25,257,o),
(-20,157,cs),
(-15,56,o),
(98,-15,o),
(207,-15,cs)
);
},
{
closed = 1;
nodes = (
(174,157,o),
(169,162,o),
(169,168,cs),
(169,174,o),
(174,179,o),
(180,179,cs),
(186,179,o),
(191,174,o),
(191,168,cs),
(191,162,o),
(186,157,o),
(180,157,cs)
);
},
{
closed = 1;
nodes = (
(156,275,o),
(151,280,o),
(151,286,cs),
(151,292,o),
(156,297,o),
(162,297,cs),
(168,297,o),
(173,292,o),
(173,286,cs),
(173,280,o),
(168,275,o),
(162,275,cs)
);
}
);
width = 338;
}
);
metricLeft = "=meem-ar.medi.round";
metricRight = "=0";
production = hehar.init.round;
script = arabic;
sortName = arL0067.round;
sortNameKeep = arL0067.round;
}
{
category = Letter;
glyphname = "heh-ar.medi.round";
kernRight = beh;
layers = (
{
anchors = (
{
name = damma;
pos = (-69,168);
},
{
name = entry;
pos = (291,0);
},
{
name = exit;
},
{
name = fatha;
pos = (199,549);
},
{
name = kasra;
pos = (166,-92);
}
);
backgroundImage = {
alpha = 80;
imagePath = "images/heh-ar.medi.jpg";
pos = (-312,-182);
scale = (14.67,14.67);
};
layerId = m01;
shapes = (
{
closed = 1;
nodes = (
(199,-20,o),
(251,-16,o),
(278,3,cs),
(290,12,o),
(303,25,o),
(300,39,cs),
(282,112,o),
(284,391,o),
(241,549,cs),
(237,563,o),
(226,559,o),
(226,546,cs),
(226,510,o),
(179,445,o),
(152,421,cs),
(148,417,o),
(147,412,o),
(149,408,cs),
(157,392,o),
(163,375,o),
(165,359,c),
(172,398,l),
(58,328,o),
(-37,249,o),
(-18,105,cs),
(-11,53,o),
(6,-24,o),
(166,-21,cs)
);
},
{
closed = 1;
nodes = (
(317,0,l),
(317,110,l),
(151,110,l),
(151,0,l)
);
},
{
closed = 1;
nodes = (
(179,127,o),
(174,132,o),
(174,138,cs),
(174,144,o),
(179,149,o),
(185,149,cs),
(191,149,o),
(196,144,o),
(196,138,cs),
(196,132,o),
(191,127,o),
(185,127,cs)
);
},
{
closed = 1;
nodes = (
(317,110,l),
(300,117,o),
(288,132,o),
(285,182,c),
(285,110,l)
);
},
{
closed = 1;
nodes = (
(171,263,o),
(166,268,o),
(166,274,cs),
(166,279,o),
(171,285,o),
(177,285,cs),
(182,285,o),
(188,279,o),
(188,274,cs),
(188,268,o),
(182,263,o),
(177,263,cs)
);
}
);
width = 291;
}
);
metricLeft = "=meem-ar.medi.round";
metricRight = "=3@157";
production = hehar.medi.round;
script = arabic;
sortName = arL0066.round;
sortNameKeep = arL0066.round;
}
{
category = Letter;
color = 9;
glyphname = "kaf-ar.init";
kernLeft = kaf;
kernRight = dal.isol;
layers = (
{
anchors = (
{
name = damma;
pos = (27,175);
},
{
name = exit;
},
{
name = fatha;
pos = (577,314);
},
{
name = gaf;
pos = (135,292);
},
{
name = kasra;
pos = (855,-53);
}
);
backgroundImage = {
alpha = 80;
imagePath = "images/MS-Arabe-350-0000003.png";
pos = (-962,-920);
scale = (2.5,2.5);
};
layerId = m01;
shapes = (
{
closed = 1;
nodes = (
(367,2,o),
(549,0,o),
(971,0,cs),
(994,0,o),
(1013,6,o),
(1010,31,cs),
(1006,69,o),
(988,140,o),
(955,198,cs),
(952,204,o),
(944,208,o),
(937,208,cs),
(528,201,o),
(382,204,o),
(220,216,cs),
(194,218,o),
(144,228,o),
(163,252,cs),
(196,301,o),
(232,352,o),
(264,401,cs),
(274,416,o),
(262,427,o),
(250,410,cs),
(173,314,o),
(106,237,o),
(28,138,cs),
(24,132,o),
(27,131,o),
(35,128,cs),
(60,120,o),
(121,114,o),
(199,111,cs),
(400,104,o),
(717,111,o),
(845,116,c),
(848,115,o),
(849,108,o),
(851,104,c),
(605,97,o),
(365,93,o),
(198,97,cs),
(98,99,o),
(23,107,o),
(-10,122,c),
(-10,0,l)
);
}
);
width = 1010;
},
{
anchors = (
{
name = damma;
pos = (27,175);
},
{
name = exit;
},
{
name = fatha;
pos = (3077,314);
},
{
name = gaf;
pos = (135,292);
},
{
name = kasra;
pos = (5845,-53);
}
);
associatedMasterId = m01;
attr = {
coordinates = (
100
);
};
backgroundImage = {
alpha = 80;
imagePath = "images/MS-Arabe-350-0000003.png";
pos = (-966,-920);
scale = (2.5,2.5);
};
layerId = "257FD885-0504-49F8-8406-A1FC5AE13C98";
name = "{0, 100} 27 Sep 25 at 13:51";
shapes = (
{
closed = 1;
nodes = (
(2867,12,o),
(3139,12,o),
(5961,0,cs),
(5984,0,o),
(6003,6,o),
(6000,31,cs),
(5996,69,o),
(5978,140,o),
(5945,198,cs),
(5942,204,o),
(5934,208,o),
(5927,208,cs),
(3118,191,o),
(2882,191,o),
(220,216,cs),
(194,216,o),
(144,228,o),
(163,252,cs),
(196,301,o),
(232,352,o),
(264,401,cs),
(274,416,o),
(262,427,o),
(250,410,cs),
(173,314,o),
(106,237,o),
(28,138,cs),
(24,132,o),
(27,131,o),
(35,128,cs),
(60,120,o),
(121,111,o),
(199,111,cs),
(2900,115,o),
(3307,115,o),
(5835,116,c),
(5838,115,o),
(5839,108,o),
(5841,104,c),
(3195,93,o),
(2865,93,o),
(198,97,cs),
(98,97,o),
(23,107,o),
(-10,122,c),
(-10,0,l)
);
}
);
width = 6000;
},
{
anchors = (
{
name = damma;
pos = (27,175);
},
{
name = exit;
},
{
name = fatha;
pos = (288,281);
},
{
name = gaf;
pos = (135,292);
},
{
name = kasra;
pos = (250,-53);
}
);
associatedMasterId = m01;
attr = {
coordinates = (
0
);
};
layerId = "602B23C6-C93C-4353-A108-CCF0EA74D0B1";
name = "{0, 0} 27 Sep 25 at 13:54";
shapes = (
{
closed = 1;
nodes = (
(65,0,o),
(142,0,o),
(366,0,cs),
(389,0,o),
(408,6,o),
(405,31,cs),
(401,69,o),
(383,140,o),
(350,198,cs),
(347,204,o),
(339,209,o),
(332,208,cs),
(279,204,o),
(230,205,o),
(199,205,cs),
(173,205,o),
(127,207,o),
(146,231,cs),
(179,280,o),
(232,352,o),
(264,401,cs),
(274,416,o),
(262,427,o),
(250,410,cs),
(173,314,o),
(104,237,o),
(26,138,cs),
(22,132,o),
(25,130,o),
(33,126,cs),
(49,119,o),
(72,116,o),
(92,115,cs),
(150,112,o),
(205,116,o),
(240,118,c),
(243,117,o),
(244,110,o),
(246,106,c),
(204,105,o),
(139,101,o),
(87,103,cs),
(43,104,o),
(8,115,o),
(-10,126,c),
(-10,0,l)
);
}
);
width = 405;
}
);
metricLeft = "=-10";
metricRight = "=0";
production = kafar.init.alt;
script = arabic;
sortName = arL0049;
sortNameKeep = arL0049;
}
{
category = Letter;
glyphname = "lam-ar.fina";
kernLeft = lam.fina;
kernRight = beh;
layers = (
{
anchors = (
{
name = entry;
pos = (298,0);
}
);
backgroundImage = {
alpha = 80;
angle = -0.6;
imagePath = "images/lam-ar.fina.jpg";
locked = 1;
pos = (-293,-499);
scale = (14.67,14.67);
};
layerId = m01;
shapes = (
{
alignment = -1;
ref = "lam-ar";
},
{
closed = 1;
nodes = (
(324,0,l),
(324,110,l),
(252,110,l),
(252,0,l)
);
},
{
closed = 1;
nodes = (
(324,110,l),
(307,117,o),
(292,125,o),
(292,208,c),
(281,110,l)
);
}
);
width = 298;
}
);
metricLeft = "=lam-ar";
metricRight = "=3@157";
script = arabic;
sortName = arL0054;
sortNameKeep = arL0054;
}
{
category = Letter;
glyphname = "lam-ar.fina.short";
kernLeft = lam.fina;
kernRight = beh;
layers = (
{
anchors = (
{
name = damma;
pos = (72,0);
},
{
name = entry;
pos = (298,0);
},
{
name = fatha;
pos = (97,518);
},
{
name = kasra;
pos = (374,-205);
}
);
layerId = m01;
shapes = (
{
closed = 1;
nodes = (
(324,0,l),
(324,110,l),
(252,110,l),
(252,0,l)
);
},
{
closed = 1;
nodes = (
(324,110,l),
(307,117,o),
(292,125,o),
(292,208,c),
(281,110,l)
);
},
{
closed = 1;
nodes = (
(295,-398,o),
(306,-404,o),
(309,-377,cs),
(312,-360,o),
(312,-326,o),
(310,-301,cs),
(300,-151,o),
(295,5,o),
(293,158,cs),
(290,365,o),
(294,495,o),
(291,697,cs),
(290,747,o),
(283,769,o),
(277,787,cs),
(275,796,o),
(270,795,o),
(266,787,cs),
(240,732,o),
(213,691,o),
(185,671,cs),
(178,666,o),
(175,660,o),
(178,654,cs),
(183,639,o),
(188,619,o),
(189,603,cs),
(207,232,o),
(204,13,o),
(200,-277,c),
(134,-279,o),
(72,-277,o),
(20,-260,cs),
(14,-257,o),
(7,-255,o),
(0,-263,cs),
(-22,-289,o),
(-99,-349,o),
(-156,-389,cs),
(-162,-392,o),
(-165,-402,o),
(-148,-402,cs),
(-21,-402,o),
(136,-411,o),
(235,-403,cs)
);
}
);
width = 298;
}
);
metricLeft = "=lam-ar.fina";
metricRight = "=3@157";
production = lamar.fina.short;
script = arabic;
sortName = arL0054.short;
sortNameKeep = arL0054.short;
}
{
category = Letter;
glyphname = "lam-ar.init";
kernLeft = lam;
kernRight = lam;
layers = (
{
anchors = (
{
name = damma;
pos = (0,175);
},
{
name = exit;
},
{
name = fatha;
pos = (-26,787);
},
{
name = kasra;
pos = (68,-77);
}
);
backgroundImage = {
alpha = 80;
imagePath = "images/lam-ar.init.jpg";
pos = (-368,-151);
scale = (14.67,14.67);
};
layerId = m01;
shapes = (
{
closed = 1;
nodes = (
(77,0,ls),
(90,0,o),
(111,9,o),
(111,22,cs),
(109,126,o),
(101,288,o),
(104,420,cs),
(106,578,o),
(114,739,o),
(101,897,cs),
(101,905,o),
(95,906,o),
(90,898,cs),
(58,837,o),
(45,808,o),
(13,779,cs),
(2,770,o),
(5,762,o),
(7,753,cs),
(17,704,o),
(20,662,o),
(20,601,cs),
(20,456,o),
(14,294,o),
(9,99,c),
(46,110,l),
(-20,110,l),
(-20,0,l)
);
}
);
width = 111;
}
);
metricLeft = "=-20@0";
metricRight = "=0";
script = arabic;
sortName = arL0056;
sortNameKeep = arL0056;
}
{
category = Letter;
glyphname = "lam-ar.init.hah1.alt";
layers = (
{
anchors = (
{
name = damma;
pos = (-13,232);
},
{
name = exit;
pos = (-67,115);
},
{
name = fatha;
pos = (-73,825);
},
{
name = kasra;
pos = (159,-72);
}
);
backgroundImage = {
alpha = 80;
angle = 0.38163;
imagePath = "images/MS-Arabe-350-0000004.png";
pos = (-1699,-500);
scale = (2.25,2.25);
};
layerId = m01;
shapes = (
{
closed = 1;
nodes = (
(-32,659,cs),
(-16,467,o),
(-3,199,o),
(1,114,c),
(100,114,l),
(97,160,o),
(83,378,o),
(71,575,cs),
(62,731,o),
(56,873,o),
(52,907,cs),
(51,915,o),
(45,916,o),
(41,908,cs),
(8,847,o),
(-5,820,o),
(-37,791,cs),
(-48,782,o),
(-45,774,o),
(-43,765,cs),
(-40,749,o),
(-36,710,o)
);
}
);
width = 100;
}
);
metricLeft = "=0@130";
metricRight = "=0";
production = lamar.init.hah1.alt;
script = arabic;
sortName = arL0056.hah1.alt;
sortNameKeep = arL0056.hah1.alt;
}
{
category = Letter;
glyphname = "lam-ar.init.hah1";
kernLeft = lam;
kernRight = lam;
layers = (
{
anchors = (
{
name = damma;
pos = (-5,290);
},
{
name = exit;
pos = (0,115);
},
{
name = fatha;
pos = (-31,752);
},
{
name = kasra;
pos = (123,38);
}
);
layerId = m01;
shapes = (
{
closed = 1;
nodes = (
(72,115,ls),
(85,115,o),
(106,124,o),
(106,137,cs),
(104,241,o),
(98,403,o),
(101,535,cs),
(103,643,o),
(109,744,o),
(97,902,cs),
(96,910,o),
(90,911,o),
(86,903,cs),
(53,842,o),
(40,813,o),
(8,784,cs),
(-3,775,o),
(0,767,o),
(2,758,cs),
(12,709,o),
(13,667,o),
(13,606,cs),
(13,521,o),
(13,409,o),
(8,214,c),
(41,225,l),
(-20,225,l),
(-20,115,l)
);
}
);
width = 106;
}
);
metricLeft = "=-20@115";
metricRight = "=0";
production = lamar.init.hah1;
script = arabic;
sortName = arL0056.hah1;
sortNameKeep = arL0056.hah1;
}
{
category = Letter;
glyphname = "lam-ar.init.hah2.alt";
layers = (
{
anchors = (
{
name = damma;
pos = (-9,347);
},
{
name = exit;
pos = (-63,230);
},
{
name = fatha;
pos = (-69,745);
},
{
name = kasra;
pos = (163,-72);
}
);
layerId = m01;
shapes = (
{
closed = 1;
nodes = (
(-28,659,cs),
(-17,523,o),
(-6,349,o),
(0,229,c),
(98,229,l),
(92,321,o),
(83,452,o),
(75,575,cs),
(66,731,o),
(60,873,o),
(56,907,cs),
(55,915,o),
(49,916,o),
(45,908,cs),
(12,847,o),
(-1,820,o),
(-33,791,cs),
(-44,782,o),
(-41,774,o),
(-39,765,cs),
(-36,749,o),
(-32,710,o)
);
}
);
width = 98;
}
);
metricLeft = "=0@230";
metricRight = "=0";
production = lamar.init.hah2.alt;
script = arabic;
sortName = arL0056.hah2.alt;
sortNameKeep = arL0056.hah2.alt;
}
{
category = Letter;
glyphname = "lam-ar.init.hah2";
kernLeft = beh;
kernRight = beh;
layers = (
{
anchors = (
{
name = damma;
pos = (-25,405);
},
{
name = exit;
pos = (0,230);
},
{
name = fatha;
pos = (-51,767);
},
{
name = kasra;
pos = (103,153);
}
);
layerId = m01;
shapes = (
{
closed = 1;
nodes = (
(78,230,o),
(80,253,o),
(80,270,cs),
(80,947,l),
(111,967,l),
(96,918,o),
(19,822,o),
(-31,794,c),
(-25,820,l),
(1,804,o),
(0,683,o),
(0,631,cs),
(0,270,ls),
(0,253,o),
(0,230,o),
(40,230,cs)
);
},
{
closed = 1;
nodes = (
(50,230,l),
(50,310,l),
(-20,310,l),
(-20,230,l)
);
}
);
width = 100;
}
);
metricLeft = "=lam-ar.init";
metricRight = "=lam-ar.init";
metricWidth = "=lam-ar.init";
production = lamar.init.hah2;
script = arabic;
sortName = arL0056.hah2;
sortNameKeep = arL0056.hah2;
}
{
category = Letter;
glyphname = "lam-ar.medi";
kernLeft = lam;
kernRight = beh;
layers = (
{
anchors = (
{
name = damma;
pos = (-22,175);
},
{
name = entry;
pos = (101,0);
},
{
name = exit;
},
{
name = fatha;
pos = (-64,766);
},
{
name = kasra;
pos = (83,-59);
}
);
backgroundImage = {
alpha = 80;
imagePath = "images/lam-ar.medi.jpg";
pos = (-696,-266);
scale = (14.67,14.67);
};
layerId = m01;
shapes = (
{
closed = 1;
nodes = (
(127,0,l),
(127,110,l),
(95,110,l),
(95,191,l),
(95,405,o),
(92,670,o),
(88,921,cs),
(88,929,o),
(84,930,o),
(81,925,cs),
(60,887,o),
(27,827,o),
(1,804,cs),
(-12,792,o),
(-9,787,o),
(-7,775,cs),
(5,712,o),
(6,634,o),
(7,547,cs),
(9,61,l),
(59,110,l),
(-20,110,l),
(-20,0,l)
);
},
{
closed = 1;
nodes = (
(127,110,l),
(111,117,o),
(97,124,o),
(95,191,c),
(84,110,l)
);
}
);
width = 101;
}
);
metricLeft = "=-20";
metricRight = "=3@157";
script = arabic;
sortName = arL0055;
sortNameKeep = arL0055;
}
{
category = Letter;
glyphname = "lam-ar.medi.hah1";
kernLeft = lam;
kernRight = beh;
layers = (
{
anchors = (
{
name = entry;
pos = (107,115);
}
);
layerId = m01;
shapes = (
{
alignment = -1;
ref = "lam-ar.init.hah1";
},
{
closed = 1;
nodes = (
(138,115,l),
(138,225,l),
(18,225,l),
(18,115,l)
);
},
{
closed = 1;
nodes = (
(133,225,l),
(117,232,o),
(103,239,o),
(101,306,c),
(95,225,l)
);
}
);
width = 107;
}
);
metricLeft = "=-20";
metricRight = "=3@272";
production = lamar.medi.hah1;
script = arabic;
sortName = arL0055.hah1;
sortNameKeep = arL0055.hah1;
}
{
category = Letter;
glyphname = "lam-ar.medi.hah1.round";
kernLeft = lam;
kernRight = beh;
layers = (
{
anchors = (
{
name = damma;
pos = (-36,186);
},
{
name = entry;
pos = (100,115);
},
{
name = exit;
pos = (15,115);
},
{
name = fatha;
pos = (-75,735);
},
{
name = kasra;
pos = (69,19);
}
);
layerId = m01;
shapes = (
{
closed = 1;
nodes = (
(121,225,l),
(114,226,o),
(96,234,o),
(95,298,cs),
(91,477,o),
(89,813,o),
(85,908,cs),
(85,918,o),
(78,925,o),
(72,908,cs),
(60,874,o),
(22,799,o),
(1,777,cs),
(-3,773,o),
(-5,770,o),
(-4,764,cs),
(10,641,o),
(13,321,o),
(10,212,cs),
(9,129,o),
(29,119,o),
(56,117,cs),
(82,115,o),
(95,115,o),
(121,115,c)
);
}
);
width = 100;
}
);
metricRight = "=3@272";
production = lamar.medi.hah1.round;
script = arabic;
sortName = arL0055.hah1.round;
sortNameKeep = arL0055.hah1.round;
}
{
category = Letter;
glyphname = "lam-ar.medi.hah2";
kernLeft = lam;
kernRight = beh;
layers = (
{
anchors = (
{
name = entry;
pos = (107,230);
}
);
layerId = m01;
shapes = (
{
alignment = -1;
ref = "lam-ar.init.hah2";
},
{
closed = 1;
nodes = (
(138,230,l),
(138,340,l),
(18,340,l),
(18,230,l)
);
},
{
closed = 1;
nodes = (
(133,340,l),
(117,347,o),
(103,354,o),
(101,421,c),
(95,340,l)
);
}
);
width = 107;
}
);
metricLeft = "=-20";
metricRight = "=3@387";
production = lamar.medi.hah2;
script = arabic;
sortName = arL0055.hah2;
sortNameKeep = arL0055.hah2;
}
{
category = Letter;
glyphname = "lam-ar.medi.hah2.round";
kernLeft = lam;
kernRight = beh;
layers = (
{
anchors = (
{
name = damma;
pos = (-36,301);
},
{
name = entry;
pos = (100,230);
},
{
name = exit;
pos = (15,230);
},
{
name = fatha;
pos = (-75,730);
},
{
name = kasra;
pos = (69,134);
}
);
layerId = m01;
shapes = (
{
closed = 1;
nodes = (
(121,340,l),
(114,341,o),
(96,349,o),
(95,413,cs),
(91,592,o),
(89,808,o),
(85,903,cs),
(85,913,o),
(78,920,o),
(72,903,cs),
(60,869,o),
(22,814,o),
(1,792,cs),
(-3,788,o),
(-5,785,o),
(-4,779,cs),
(10,656,o),
(13,436,o),
(10,327,cs),
(9,244,o),
(29,234,o),
(56,232,cs),
(82,230,o),
(95,230,o),
(121,230,c)
);
}
);
width = 100;
}
);
metricRight = "=3@387";
production = lamar.medi.hah2.round;
script = arabic;
sortName = arL0055.hah2.round;
sortNameKeep = arL0055.hah2.round;
}
{
category = Letter;
glyphname = "lam-ar.medi.round";
kernLeft = lam.round;
kernRight = beh;
layers = (
{
anchors = (
{
name = damma;
pos = (-46,81);
},
{
name = entry;
pos = (100,0);
},
{
name = exit;
pos = (15,0);
},
{
name = fatha;
pos = (-75,740);
},
{
name = kasra;
pos = (69,-96);
}
);
backgroundImage = {
alpha = 80;
angle = 0.54782;
imagePath = "images/MS-Arabe-350-0000007.png";
locked = 1;
pos = (-1497,-483);
scale = (2.25,2.25);
};
layerId = m01;
shapes = (
{
closed = 1;
nodes = (
(121,110,l),
(114,111,o),
(96,119,o),
(95,183,cs),
(91,362,o),
(89,818,o),
(85,913,cs),
(85,923,o),
(78,930,o),
(72,913,cs),
(60,879,o),
(22,804,o),
(1,782,cs),
(-3,778,o),
(-5,775,o),
(-4,769,cs),
(10,646,o),
(13,206,o),
(10,97,cs),
(9,14,o),
(29,4,o),
(56,2,cs),
(82,0,o),
(95,0,o),
(121,0,c)
);
}
);
width = 100;
}
);
metricRight = "=3@157";
production = lamar.medi.round;
script = arabic;
sortName = arL0055.round;
sortNameKeep = arL0055.round;
}
{
category = Letter;
glyphname = "lam-ar.medi.round.kashida";
layers = (
{
anchors = (
{
name = damma;
pos = (-36,71);
},
{
name = entry;
pos = (100,0);
},
{
name = exit;
pos = (15,0);
},
{
name = fatha;
pos = (-75,790);
},
{
name = kasra;
pos = (69,-96);
}
);
backgroundImage = {
alpha = 80;
angle = 1.80061;
imagePath = "images/MS-Arabe-350-0000008.png";
locked = 1;
pos = (-1266,-522);
scale = (2.25,2.25);
};
layerId = m01;
shapes = (
{
closed = 1;
nodes = (
(199,110,l),
(102,124,o),
(100,188,o),
(100,282,cs),
(100,327,o),
(102,386,o),
(100,457,cs),
(96,645,o),
(93,858,o),
(91,913,cs),
(91,923,o),
(84,930,o),
(78,913,cs),
(66,879,o),
(28,804,o),
(7,782,cs),
(3,778,o),
(1,775,o),
(2,769,cs),
(16,646,o),
(9,206,o),
(10,97,cs),
(11,14,o),
(39,4,o),
(66,2,cs),
(92,0,o),
(173,0,o),
(199,0,c)
);
}
);
width = 199;
},
{
associatedMasterId = m01;
backgroundImage = {
alpha = 80;
angle = 1.80061;
imagePath = "images/MS-Arabe-350-0000008.png";
locked = 1;
pos = (-1266,-522);
scale = (2.25,2.25);
};
layerId = "3A970FDC-39D8-4143-8ABE-C5783DAA5B30";
name = "27 Sep 25 at 21:41";
shapes = (
{
closed = 1;
nodes = (
(199,0,l),
(199,110,l),
(159,110,o),
(137,115,o),
(119,158,cs),
(97,211,o),
(86,304,o),
(83,391,cs),
(83,398,o),
(79,397,o),
(75,391,cs),
(51,350,o),
(21,304,o),
(-1,281,cs),
(-5,276,o),
(-7,271,o),
(-7,265,cs),
(-1,174,o),
(2,148,o),
(12,65,cs),
(15,41,o),
(29,0,o),
(76,0,c)
);
}
);
width = 219;
}
);
metricRight = "=0";
production = lamar.medi.round.kashida;
script = arabic;
sortName = arL0055.round.kashida;
sortNameKeep = arL0055.round.kashida;
}
{
category = Letter;
glyphname = "lam-ar.medi.round.short";
kernLeft = lam.round;
kernRight = beh;
layers = (
{
anchors = (
{
name = damma;
pos = (-36,71);
},
{
name = entry;
pos = (100,0);
},
{
name = exit;
pos = (15,0);
},
{
name = fatha;
pos = (-75,620);
},
{
name = kasra;
pos = (69,-96);
}
);
layerId = m01;
shapes = (
{
closed = 1;
nodes = (
(121,110,l),
(114,111,o),
(96,119,o),
(95,183,cs),
(91,362,o),
(89,698,o),
(85,793,cs),
(85,803,o),
(78,810,o),
(72,793,cs),
(60,759,o),
(22,684,o),
(1,662,cs),
(-3,658,o),
(-5,655,o),
(-4,649,cs),
(10,526,o),
(13,206,o),
(10,97,cs),
(9,14,o),
(29,4,o),
(56,2,cs),
(82,0,o),
(95,0,o),
(121,0,c)
);
}
);
width = 100;
}
);
metricRight = "=3@157";
production = lamar.medi.round.short;
script = arabic;
sortName = arL0055.round.short;
sortNameKeep = arL0055.round.short;
}
{
category = Letter;
glyphname = "lam-ar.medi.short";
kernLeft = lam;
kernRight = beh;
layers = (
{
anchors = (
{
name = damma;
pos = (-22,175);
},
{
name = entry;
pos = (101,0);
},
{
name = exit;
},
{
name = fatha;
pos = (-68,663);
},
{
name = kasra;
pos = (83,-59);
}
);
layerId = m01;
shapes = (
{
closed = 1;
nodes = (
(127,0,l),
(127,110,l),
(92,110,l),
(93,171,ls),
(97,385,o),
(109,641,o),
(88,798,c),
(87,806,o),
(84,807,o),
(81,802,cs),
(60,764,o),
(34,734,o),
(8,711,cs),
(-5,699,o),
(-2,694,o),
(0,682,cs),
(12,619,o),
(15,511,o),
(14,424,cs),
(9,61,l),
(59,110,l),
(-20,110,l),
(-20,0,l)
);
},
{
closed = 1;
nodes = (
(127,110,l),
(111,117,o),
(93,114,o),
(93,171,c),
(84,110,l)
);
}
);
width = 101;
}
);
metricLeft = "=-20";
metricRight = "=8@157";
production = lamar.medi.short;
script = arabic;
sortName = arL0055.short;
sortNameKeep = arL0055.short;
}
{
category = Letter;
glyphname = "meem-ar.fina";
kernLeft = meem.fina;
layers = (
{
anchors = (
{
name = damma;
pos = (-15,61);
},
{
name = entry;
pos = (681,0);
},
{
name = fatha;
pos = (482,416);
},
{
name = kasra;
pos = (507,-75);
}
);
layerId = m01;
shapes = (
{
closed = 1;
nodes = (
(660,0,o),
(681,17,o),
(681,105,cs),
(681,224,o),
(606,368,o),
(500,368,cs),
(392,368,o),
(288,234,o),
(288,95,cs),
(288,2,o),
(399,0,o),
(489,0,cs)
);
},
{
closed = 1;
nodes = (
(326,106,l),
(266,101,o),
(203,101,o),
(141,113,cs),
(133,115,o),
(129,113,o),
(127,110,cs),
(92,72,o),
(51,42,o),
(6,13,cs),
(0,10,o),
(-4,5,o),
(6,5,cs),
(149,0,o),
(530,-5,o),
(681,0,c)
);
},
{
closed = 1;
nodes = (
(489,173,o),
(484,177,o),
(484,182,cs),
(484,187,o),
(489,192,o),
(494,192,cs),
(499,192,o),
(503,187,o),
(503,182,cs),
(503,177,o),
(499,173,o),
(494,173,cs)
);
},
{
closed = 1;
nodes = (
(681,111,l),
(464,111,l),
(464,2,l),
(681,1,l)
);
}
);
width = 681;
}
);
metricLeft = "=0";
metricRight = "=0";
script = arabic;
sortName = arL0058;
sortNameKeep = arL0058;
}
{
category = Letter;
glyphname = "meem-ar.init";
kernLeft = meem;
layers = (
{
anchors = (
{
name = damma;
pos = (0,175);
},
{
name = exit;
},
{
name = fatha;
pos = (154,384);
},
{
name = kasra;
pos = (154,-80);
}
);
backgroundImage = {
alpha = 80;
imagePath = "images/heh-ar.fina.jpg";
locked = 1;
pos = (-2747,-181);
scale = (14.67,14.67);
};
layerId = m01;
shapes = (
{
closed = 1;
nodes = (
(148,0,l),
(148,70,l),
(0,70,l),
(0,0,l)
);
},
{
pos = (0,10);
ref = "meem-ar.init.round";
}
);
width = 328;
}
);
metricLeft = "=meem-ar.medi";
metricRight = "=meem-ar";
script = arabic;
sortName = arL0060;
sortNameKeep = arL0060;
}
{
category = Letter;
glyphname = "meem-ar.init.round";
kernLeft = meem.alt;
layers = (
{
anchors = (
{
name = damma;
pos = (-1,162);
},
{
name = entry;
pos = (390,0);
},
{
name = exit;
},
{
name = fatha;
pos = (196,415);
},
{
name = kasra;
pos = (221,-84);
}
);
layerId = m01;
shapes = (
{
closed = 1;
nodes = (
(354,-32,o),
(390,-6,o),
(390,85,cs),
(390,210,o),
(305,362,o),
(195,362,cs),
(84,362,o),
(-10,237,o),
(-10,74,cs),
(-10,-8,o),
(58,-32,o),
(195,-32,cs)
);
},
{
closed = 1;
nodes = (
(195,150,o),
(191,154,o),
(191,159,cs),
(191,164,o),
(195,169,o),
(200,169,cs),
(205,169,o),
(210,164,o),
(210,159,cs),
(210,154,o),
(205,150,o),
(200,150,cs)
);
}
);
width = 390;
}
);
metricLeft = "=-10";
metricRight = "=0";
production = meemar.init.round;
script = arabic;
sortName = arL0060.round;
sortNameKeep = arL0060.round;
}
{
category = Letter;
glyphname = "meem-ar.medi";
kernLeft = meem;
layers = (
{
anchors = (
{
name = damma;
pos = (0,171);
},
{
name = entry;
pos = (381,0);
},
{
name = exit;
},
{
name = fatha;
pos = (197,424);
},
{
name = kasra;
pos = (222,-75);
}
);
backgroundImage = {
alpha = 80;
angle = -2.5;
imagePath = "images/meem-ar.medi.jpg";
locked = 1;
pos = (-246,-202);
scale = (14.67,14.67);
};
layerId = m01;
shapes = (
{
closed = 1;
nodes = (
(381,0,l),
(381,110,l),
(-20,110,l),
(-20,115,o),
(-20,8,o),
(-20,0,c)
);
},
{
closed = 1;
nodes = (
(311,-13,o),
(381,-3,o),
(381,90,cs),
(381,180,o),
(286,370,o),
(184,370,cs),
(95,370,o),
(0,244,o),
(0,82,cs),
(0,11,o),
(67,-12,o),
(206,-13,cs)
);
},
{
closed = 1;
nodes = (
(201,156,o),
(197,161,o),
(197,166,cs),
(197,171,o),
(201,175,o),
(206,175,cs),
(211,175,o),
(216,171,o),
(216,166,cs),
(216,161,o),
(211,156,o),
(206,156,cs)
);
}
);
width = 381;
}
);
metricLeft = "=-20";
metricRight = "=0";
script = arabic;
sortName = arL0059;
sortNameKeep = arL0059;
}
{
category = Letter;
glyphname = "meem-ar.medi.round2";
kernLeft = meem.alt;
layers = (
{
anchors = (
{
name = damma;
pos = (-38,150);
},
{
name = entry;
pos = (389,0);
},
{
name = exit;
},
{
name = fatha;
pos = (189,376);
},
{
name = kasra;
pos = (238,-100);
}
);
backgroundImage = {
alpha = 80;
imagePath = "images/alef-ar.fina.meem.jpg";
locked = 1;
pos = (-635,-228);
scale = (14.67,14.67);
};
layerId = m01;
shapes = (
{
closed = 1;
nodes = (
(367,-27,o),
(389,-3,o),
(389,83,cs),
(389,202,o),
(313,354,o),
(187,354,cs),
(87,354,o),
(-27,222,o),
(-8,112,cs),
(6,32,o),
(73,-24,o),
(214,-25,cs)
);
},
{
closed = 1;
nodes = (
(201,146,o),
(196,151,o),
(196,156,cs),
(196,161,o),
(201,165,o),
(206,165,cs),
(211,165,o),
(216,161,o),
(216,156,cs),
(216,151,o),
(211,146,o),
(206,146,cs)
);
}
);
width = 389;
}
);
metricLeft = "=-10";
metricRight = "=0";
production = meemar.medi.round2;
script = arabic;
sortName = arL0059.round2;
sortNameKeep = arL0059.round2;
}
{
category = Letter;
color = 7;
glyphname = "reh-ar.hist";
layers = (
{
anchors = (
{
name = damma;
pos = (-20,52);
},
{
name = fatha;
pos = (315,424);
},
{
name = kasra;
pos = (263,-119);
},
{
name = top;
pos = (230,226);
}
);
layerId = m01;
shapes = (
{
closed = 1;
nodes = (
(329,305,o),
(321,300,o),
(312,294,cs),
(282,273,o),
(200,182,o),
(161,124,cs),
(156,115,o),
(151,102,o),
(166,96,cs),
(211,75,o),
(279,77,o),
(333,78,c),
(336,75,o),
(337,71,o),
(337,68,c),
(279,59,o),
(194,63,o),
(131,87,c),
(101,52,o),
(44,12,o),
(0,-9,c),
(43,-44,o),
(321,-73,o),
(439,-38,cs),
(468,-29,o),
(487,-17,o),
(491,12,cs),
(509,122,o),
(418,244,o),
(346,294,cs)
);
}
);
width = 493;
}
);
metricLeft = "=0";
metricRight = "=0";
script = arabic;
sortName = arL0020;
sortNameKeep = arL0020;
}
{
category = Letter;
color = 9;
glyphname = "sad-ar.init";
kernLeft = sad;
kernRight = dal.isol;
layers = (
{
anchors = (
{
name = damma;
pos = (1,171);
},
{
name = exit;
},
{
name = fatha;
pos = (501,271);
},
{
name = kasra;
pos = (460,-71);
},
{
name = top;
pos = (344,277);
}
);
backgroundImage = {
alpha = 80;
angle = -0.8;
imagePath = "images/sad-ar.init.jpg";
locked = 1;
pos = (-1436,-417);
scale = (14.67,14.67);
};
layerId = m01;
shapes = (
{
closed = 1;
nodes = (
(91,478,o),
(83,472,o),
(80,466,cs),
(57,424,o),
(32,384,o),
(8,358,cs),
(1,349,o),
(1,340,o),
(3,331,cs),
(12,264,o),
(9,169,o),
(17,87,c),
(28,110,l),
(-20,110,l),
(-20,0,l),
(546,6,o),
(342,0,o),
(908,0,cs),
(932,1,o),
(955,5,o),
(955,23,cs),
(953,95,o),
(938,132,o),
(903,196,cs),
(898,206,o),
(889,208,o),
(878,208,cs),
(509,200,o),
(412,201,o),
(132,206,cs),
(117,206,o),
(101,205,o),
(100,219,cs),
(92,286,o),
(102,377,o),
(92,467,cs)
);
},
{
closed = 1;
nodes = (
(288,104,o),
(608,109,o),
(793,112,c),
(797,112,o),
(799,105,o),
(800,101,c),
(585,94,o),
(291,93,o),
(156,92,cs),
(120,92,o),
(121,99,o),
(119,103,c)
);
}
);
width = 955;
},
{
anchors = (
{
name = damma;
pos = (1,171);
},
{
name = exit;
},
{
name = fatha;
pos = (3021,271);
},
{
name = kasra;
pos = (2980,-71);
},
{
name = top;
pos = (2864,277);
}
);
associatedMasterId = m01;
attr = {
coordinates = (
0,
100
);
};
layerId = "6C6CD3F1-ADC1-4ED0-98FF-47A292781960";
name = "16 May 23 at 19:25";
shapes = (
{
closed = 1;
nodes = (
(91,478,o),
(83,472,o),
(80,466,cs),
(57,424,o),
(32,384,o),
(8,358,cs),
(1,349,o),
(1,340,o),
(3,331,cs),
(12,264,o),
(9,169,o),
(17,87,c),
(28,110,l),
(-20,110,l),
(-20,0,l),
(2346,9,o),
(3987,9,o),
(5953,0,cs),
(5977,0,o),
(6000,5,o),
(6000,23,cs),
(5998,95,o),
(5983,132,o),
(5948,196,cs),
(5943,206,o),
(5934,208,o),
(5923,208,cs),
(3954,189,o),
(2412,184,o),
(132,206,cs),
(117,206,o),
(101,205,o),
(100,219,cs),
(92,286,o),
(102,377,o),
(92,467,cs)
);
},
{
closed = 1;
nodes = (
(2288,108,o),
(4053,113,o),
(5838,112,c),
(5842,112,o),
(5844,105,o),
(5845,101,c),
(4030,88,o),
(2291,87,o),
(156,92,cs),
(120,92,o),
(121,99,o),
(119,103,c)
);
}
);
width = 6000;
},
{
anchors = (
{
name = damma;
pos = (1,171);
},
{
name = exit;
},
{
name = fatha;
pos = (259,301);
},
{
name = kasra;
pos = (268,-71);
},
{
name = top;
pos = (222,277);
}
);
associatedMasterId = m01;
attr = {
coordinates = (
0,
0
);
};
layerId = "EC38D515-E037-4294-911A-F1139A0CCDDB";
name = "{0, 0} 25 Sep 25 at 22:17";
shapes = (
{
closed = 1;
nodes = (
(91,478,o),
(83,472,o),
(80,466,cs),
(57,424,o),
(32,384,o),
(8,358,cs),
(1,349,o),
(1,340,o),
(3,331,cs),
(12,264,o),
(9,169,o),
(17,87,c),
(28,110,l),
(-20,110,l),
(-20,0,l),
(106,0,o),
(232,0,o),
(358,0,cs),
(394,0,o),
(408,3,o),
(406,36,cs),
(403,93,o),
(388,132,o),
(353,196,cs),
(348,206,o),
(339,209,o),
(328,208,cs),
(263,202,o),
(184,203,o),
(132,213,cs),
(117,216,o),
(101,219,o),
(100,233,cs),
(92,300,o),
(102,377,o),
(92,467,cs)
);
},
{
closed = 1;
nodes = (
(167,109,o),
(199,109,o),
(240,112,c),
(244,112,o),
(246,105,o),
(247,101,c),
(216,100,o),
(181,98,o),
(156,98,cs),
(127,98,o),
(128,106,o),
(126,110,c)
);
}
);
width = 406;
}
);
metricLeft = "=-20@10";
metricRight = "=0";
script = arabic;
sortName = arL0030;
sortNameKeep = arL0030;
}
{
category = Letter;
glyphname = "seen-ar.fina";
kernLeft = seen.isol;
kernRight = beh;
layers = (
{
anchors = (
{
name = entry;
pos = (455,0);
}
);
layerId = m01;
shapes = (
{
alignment = -1;
ref = "seen-ar";
},
{
closed = 1;
nodes = (
(481,0,l),
(481,110,l),
(381,110,l),
(243,0,l)
);
},
{
closed = 1;
nodes = (
(481,110,l),
(464,117,o),
(449,125,o),
(448,221,c),
(438,110,l)
);
}
);
width = 455;
}
);
metricLeft = "=seen-ar";
metricRight = "=3@157";
script = arabic;
sortName = arL0024;
sortNameKeep = arL0024;
}
{
category = Letter;
glyphname = "seen-ar.init";
kernLeft = seen;
kernRight = beh.init;
layers = (
{
anchors = (
{
name = damma;
pos = (0,175);
},
{
name = exit;
},
{
name = fatha;
pos = (209,423);
},
{
name = kasra;
pos = (197,-50);
},
{
name = top;
pos = (186,271);
}
);
backgroundImage = {
alpha = 80;
angle = -0.8;
imagePath = "images/seen-ar.init.jpg";
pos = (-1279,-185);
scale = (14.67,14.67);
};
layerId = m01;
shapes = (
{
closed = 1;
nodes = (
(95,-1,o),
(225,0,o),
(330,4,cs),
(359,4,o),
(368,23,o),
(366,41,cs),
(359,151,o),
(357,266,o),
(349,375,cs),
(348,387,o),
(339,387,o),
(335,375,cs),
(321,332,o),
(281,288,o),
(260,257,cs),
(258,254,o),
(256,252,o),
(258,246,cs),
(267,199,o),
(267,152,o),
(268,98,c),
(281,146,l),
(227,169,o),
(251,241,o),
(234,329,cs),
(232,340,o),
(221,344,o),
(218,332,cs),
(211,293,o),
(173,232,o),
(146,192,cs),
(143,189,o),
(141,183,o),
(141,178,cs),
(146,141,o),
(154,93,o),
(172,69,c),
(178,103,l),
(113,147,o),
(116,226,o),
(97,299,cs),
(95,306,o),
(88,313,o),
(84,302,cs),
(66,257,o),
(39,199,o),
(12,159,cs),
(10,156,o),
(10,153,o),
(11,150,cs),
(24,128,o),
(32,107,o),
(42,95,c),
(87,110,l),
(-20,110,l),
(-20,0,l)
);
}
);
width = 366;
}
);
metricLeft = "=-20";
metricRight = "=0";
script = arabic;
sortName = arL0026;
sortNameKeep = arL0026;
}
{
category = Letter;
glyphname = "seen-ar.medi";
kernLeft = seen;
kernRight = beh;
layers = (
{
anchors = (
{
name = damma;
pos = (0,175);
},
{
name = entry;
pos = (328,0);
},
{
name = exit;
},
{
name = fatha;
pos = (169,422);
},
{
name = kasra;
pos = (171,-50);
},
{
name = top;
pos = (180,265);
}
);
backgroundImage = {
alpha = 80;
angle = -0.1;
imagePath = "images/seen-ar.medi.jpg";
pos = (-613,-218);
scale = (14.67,14.67);
};
layerId = m01;
shapes = (
{
closed = 1;
nodes = (
(354,0,l),
(354,110,l),
(292,110,l),
(320,88,l),
(322,113,o),
(322,141,o),
(322,171,cs),
(322,221,o),
(319,275,o),
(315,323,cs),
(314,334,o),
(305,333,o),
(302,327,cs),
(288,296,o),
(259,247,o),
(208,193,c),
(240,184,l),
(223,209,o),
(211,253,o),
(203,292,cs),
(201,302,o),
(190,301,o),
(189,295,cs),
(184,269,o),
(163,204,o),
(118,167,c),
(153,135,l),
(129,178,o),
(106,223,o),
(86,278,cs),
(83,286,o),
(75,286,o),
(71,276,cs),
(59,244,o),
(32,181,o),
(12,161,cs),
(9,158,o),
(9,153,o),
(12,149,cs),
(27,128,o),
(33,106,o),
(44,85,c),
(52,92,o),
(59,103,o),
(66,110,c),
(-19,110,l),
(-20,0,l)
);
},
{
closed = 1;
nodes = (
(354,110,l),
(337,117,o),
(322,125,o),
(321,221,c),
(311,110,l)
);
}
);
width = 328;
}
);
metricLeft = "=-20";
metricRight = "=3@157";
script = arabic;
sortName = arL0025a;
sortNameKeep = arL0025a;
}
{
category = Letter;
glyphname = "seen_alefMaksura-ar.fina";
kernRight = beh;
layers = (
{
anchors = (
{
name = bottom_2;
pos = (368,-203);
},
{
name = caret_1;
pos = (57,0);
},
{
name = damma_1;
pos = (-49,115);
},
{
name = damma_2;
pos = (-63,-96);
},
{
name = entry;
pos = (308,0);
},
{
name = fatha_1;
pos = (175,373);
},
{
name = fatha_2;
pos = (-53,272);
},
{
name = kasra_1;
pos = (322,-26);
},
{
name = kasra_2;
pos = (191,-376);
},
{
name = top_1;
pos = (160,265);
}
);
backgroundImage = {
alpha = 80;
imagePath = "images/Bodleian-MS-Marsh-000001.png";
locked = 1;
pos = (-1389,-925);
scale = (1.2,1.2);
};
layerId = m01;
shapes = (
{
closed = 1;
nodes = (
(347,-226,o),
(388,-202,o),
(385,-166,cs),
(381,-119,o),
(363,-78,o),
(341,-37,cs),
(335,-26,o),
(322,-19,o),
(310,-19,cs),
(131,-19,ls),
(101,-19,o),
(104,22,o),
(104,51,c),
(70,0,l),
(334,0,l),
(334,110,l),
(272,110,l),
(300,88,l),
(302,113,o),
(302,141,o),
(302,171,cs),
(302,221,o),
(299,275,o),
(295,323,cs),
(294,334,o),
(285,333,o),
(282,327,cs),
(268,296,o),
(239,247,o),
(188,193,c),
(220,184,l),
(203,209,o),
(191,253,o),
(183,292,cs),
(181,302,o),
(170,301,o),
(169,295,cs),
(164,269,o),
(143,204,o),
(98,167,c),
(133,135,l),
(109,178,o),
(86,223,o),
(66,278,cs),
(63,286,o),
(55,286,o),
(51,276,cs),
(39,244,o),
(12,181,o),
(-8,161,cs),
(-11,158,o),
(-11,153,o),
(-8,149,cs),
(-5,145,o),
(0,121,o),
(0,101,cs),
(0,24,o),
(-1,-41,o),
(2,-87,cs),
(3,-106,o),
(6,-113,o),
(25,-116,cs),
(106,-126,o),
(180,-123,o),
(240,-120,c),
(244,-131,o),
(247,-132,o),
(247,-142,c),
(203,-142,o),
(64,-155,o),
(-4,-130,cs),
(-7,-129,o),
(-9,-129,o),
(-11,-132,cs),
(-30,-159,o),
(-71,-187,o),
(-129,-218,cs),
(-133,-220,o),
(-133,-223,o),
(-129,-224,cs),
(-29,-249,o),
(251,-242,o),
(313,-232,cs)
);
},
{
closed = 1;
nodes = (
(334,110,l),
(317,117,o),
(302,125,o),
(301,221,c),
(291,110,l)
);
}
);
width = 308;
},
{
anchors = (
{
name = bottom_2;
pos = (376,-238);
},
{
name = caret_1;
pos = (97,0);
},
{
name = damma_1;
pos = (-79,115);
},
{
name = damma_2;
pos = (-97,-194);
},
{
name = entry;
pos = (343,0);
},
{
name = fatha_1;
pos = (175,403);
},
{
name = fatha_2;
pos = (-83,272);
},
{
name = kasra_1;
pos = (292,-26);
},
{
name = kasra_2;
pos = (197,-318);
},
{
name = top_1;
pos = (159,244);
}
);
associatedMasterId = m01;
layerId = "6F7A59AC-6E4E-4C92-BEF4-15EA65996A22";
name = "28 Sep 25 at 02:00";
shapes = (
{
closed = 1;
nodes = (
(388,-247,o),
(401,-205,o),
(392,-148,cs),
(383,-95,o),
(378,-62,o),
(364,-36,cs),
(357,-24,o),
(356,-21,o),
(333,-21,cs),
(192,-22,o),
(159,-17,o),
(140,-12,cs),
(121,-7,o),
(119,-5,o),
(119,57,c),
(97,7,l),
(154,0,o),
(269,0,o),
(356,0,c),
(356,110,l),
(344,110,o),
(341,134,o),
(340,157,cs),
(338,234,o),
(336,271,o),
(332,313,cs),
(330,332,o),
(319,331,o),
(313,323,cs),
(282,277,o),
(268,247,o),
(240,236,cs),
(227,231,o),
(225,224,o),
(227,214,cs),
(231,193,o),
(232,174,o),
(234,110,c),
(242,143,l),
(230,143,o),
(215,160,o),
(211,197,cs),
(207,234,o),
(204,252,o),
(201,278,cs),
(199,303,o),
(185,292,o),
(180,283,cs),
(159,243,o),
(142,221,o),
(114,197,cs),
(103,188,o),
(102,185,o),
(104,175,cs),
(106,164,o),
(109,132,o),
(110,110,c),
(121,134,l),
(109,134,o),
(94,135,o),
(90,172,cs),
(86,209,o),
(83,227,o),
(80,253,cs),
(78,278,o),
(64,267,o),
(59,258,cs),
(38,218,o),
(21,196,o),
(-7,172,cs),
(-18,163,o),
(-19,160,o),
(-17,150,cs),
(-11,112,o),
(-5,49,o),
(0,1,cs),
(4,-33,o),
(3,-79,o),
(27,-104,cs),
(57,-135,o),
(122,-147,o),
(265,-142,cs),
(279,-142,o),
(278,-151,o),
(281,-156,c),
(148,-164,o),
(56,-156,o),
(6,-127,cs),
(-6,-120,o),
(-14,-130,o),
(-21,-141,cs),
(-37,-168,o),
(-67,-203,o),
(-84,-203,cs),
(-102,-203,o),
(-106,-217,o),
(-93,-228,cs),
(-34,-278,o),
(200,-283,o),
(348,-255,cs)
);
}
);
width = 343;
}
);
metricLeft = "=0@0";
metricRight = "=3@157";
script = arabic;
sortName = arL0406;
sortNameKeep = arL0406;
subCategory = Ligature;
}
{
category = Letter;
glyphname = "seen_alefMaksura-ar";
kernRight = beh.init;
layers = (
{
anchors = (
{
name = bottom_2;
pos = (368,-203);
},
{
name = caret_1;
pos = (57,0);
},
{
name = damma_1;
pos = (-49,115);
},
{
name = damma_2;
pos = (-63,-96);
},
{
name = fatha_1;
pos = (175,373);
},
{
name = fatha_2;
pos = (-53,272);
},
{
name = kasra_1;
pos = (322,-26);
},
{
name = kasra_2;
pos = (191,-376);
},
{
name = top_1;
pos = (166,271);
}
);
layerId = m01;
shapes = (
{
closed = 1;
nodes = (
(347,-226,o),
(388,-202,o),
(385,-166,cs),
(381,-119,o),
(363,-78,o),
(341,-37,cs),
(335,-26,o),
(322,-19,o),
(310,-19,cs),
(131,-19,ls),
(101,-19,o),
(104,22,o),
(104,51,c),
(70,0,l),
(185,-1,o),
(205,0,o),
(310,4,cs),
(339,4,o),
(348,23,o),
(346,41,cs),
(339,151,o),
(337,266,o),
(329,375,cs),
(328,387,o),
(319,387,o),
(315,375,cs),
(301,332,o),
(261,288,o),
(240,257,cs),
(238,254,o),
(236,252,o),
(238,246,c),
(247,199,o),
(247,152,o),
(248,98,c),
(261,146,l),
(207,169,o),
(231,241,o),
(214,329,cs),
(212,340,o),
(201,344,o),
(198,332,cs),
(191,293,o),
(153,232,o),
(126,192,c),
(123,189,o),
(121,183,o),
(121,178,c),
(126,141,o),
(134,93,o),
(152,69,c),
(158,103,l),
(93,147,o),
(96,226,o),
(77,299,cs),
(75,306,o),
(68,313,o),
(64,302,cs),
(46,257,o),
(19,199,o),
(-8,159,cs),
(-10,156,o),
(-11,153,o),
(-9,150,cs),
(-3,140,o),
(0,121,o),
(0,101,cs),
(0,24,o),
(-1,-41,o),
(2,-87,cs),
(3,-106,o),
(6,-113,o),
(25,-116,cs),
(106,-126,o),
(180,-123,o),
(240,-120,c),
(244,-131,o),
(247,-132,o),
(247,-142,c),
(203,-142,o),
(64,-155,o),
(-4,-130,cs),
(-7,-129,o),
(-9,-129,o),
(-11,-132,cs),
(-30,-159,o),
(-71,-187,o),
(-129,-218,cs),
(-133,-220,o),
(-133,-223,o),
(-129,-224,cs),
(-29,-249,o),
(251,-242,o),
(313,-232,cs)
);
}
);
width = 346;
}
);
metricLeft = "=seen_alefMaksura-ar.fina";
metricRight = "=0@41";
script = arabic;
sortName = arL0405;
sortNameKeep = arL0405;
subCategory = Ligature;
}
{
category = Letter;
color = 9;
glyphname = "tah-ar.fina";
kernRight = sad;
layers = (
{
anchors = (
{
name = damma;
pos = (-59,75);
},
{
name = entry;
pos = (969,0);
},
{
name = fatha;
pos = (-37,719);
},
{
name = kasra;
pos = (569,-88);
},
{
name = top;
pos = (391,296);
}
);
backgroundImage = {
alpha = 80;
angle = -0.4;
imagePath = "images/tah-ar.fina.jpg";
locked = 1;
pos = (-185,-154);
scale = (13.45,13.45);
};
layerId = m01;
shapes = (
{
closed = 1;
nodes = (
(979,99,l),
(957,134,o),
(946,173,o),
(928,199,cs),
(920,210,o),
(907,208,o),
(899,208,cs),
(801,204,o),
(288,202,o),
(160,219,cs),
(132,223,o),
(119,234,o),
(121,285,cs),
(123,327,o),
(137,784,o),
(137,823,cs),
(136,857,o),
(133,875,o),
(132,892,cs),
(131,914,o),
(118,904,o),
(117,893,cs),
(113,860,o),
(76,810,o),
(46,776,cs),
(42,771,o),
(36,768,o),
(36,762,cs),
(36,752,o),
(45,735,o),
(43,708,cs),
(41,642,o),
(36,529,o),
(36,459,cs),
(35,308,o),
(33,65,o),
(9,24,cs),
(7,20,o),
(-2,16,o),
(0,13,c),
(1,9,o),
(14,6,o),
(21,6,c),
(186,-16,o),
(990,1,o),
(979,0,c)
);
},
{
closed = 1;
nodes = (
(114,93,o),
(105,125,o),
(106,146,c),
(68,104,l),
(321,108,o),
(581,112,o),
(821,112,c),
(824,112,o),
(826,104,o),
(826,101,c),
(607,96,o),
(307,93,o),
(142,93,cs)
);
}
);
width = 969;
},
{
anchors = (
{
name = damma;
pos = (-59,75);
},
{
name = entry;
pos = (5987,0);
},
{
name = fatha;
pos = (-37,719);
},
{
name = kasra;
pos = (3079,-88);
},
{
name = top;
pos = (2901,296);
}
);
associatedMasterId = m01;
attr = {
coordinates = (
0,
100
);
};
layerId = "78306F47-CFEB-43C3-94D6-8ABFDB77C0F1";
name = "17 May 23 at 01:16";
shapes = (
{
closed = 1;
nodes = (
(5997,99,l),
(5975,134,o),
(5964,173,o),
(5946,199,cs),
(5938,210,o),
(5925,208,o),
(5917,208,cs),
(3519,194,o),
(288,192,o),
(160,219,cs),
(132,225,o),
(119,234,o),
(121,285,cs),
(123,327,o),
(137,784,o),
(137,823,cs),
(136,857,o),
(133,875,o),
(132,892,cs),
(131,914,o),
(118,904,o),
(117,893,cs),
(113,860,o),
(76,810,o),
(46,776,cs),
(42,771,o),
(36,768,o),
(36,762,cs),
(36,752,o),
(45,735,o),
(43,708,cs),
(41,642,o),
(36,529,o),
(36,459,cs),
(35,308,o),
(33,65,o),
(9,24,cs),
(7,20,o),
(-2,16,o),
(0,13,c),
(1,9,o),
(14,6,o),
(21,6,c),
(186,-3,o),
(3350,20,o),
(5997,0,c)
);
},
{
closed = 1;
nodes = (
(114,93,o),
(105,125,o),
(106,146,c),
(68,104,l),
(2721,118,o),
(3299,122,o),
(5839,112,c),
(5842,112,o),
(5844,104,o),
(5844,101,c),
(3325,86,o),
(2707,83,o),
(142,93,cs)
);
}
);
width = 5987;
},
{
anchors = (
{
name = damma;
pos = (-59,75);
},
{
name = entry;
pos = (378,0);
},
{
name = fatha;
pos = (-37,719);
},
{
name = kasra;
pos = (209,-88);
},
{
name = top;
pos = (231,296);
}
);
associatedMasterId = m01;
attr = {
coordinates = (
0,
0
);
};
layerId = "FA223A78-A737-401B-928F-2A051D54EB11";
name = "{0, 0} 26 Sep 25 at 11:44";
shapes = (
{
closed = 1;
nodes = (
(388,99,l),
(366,134,o),
(355,173,o),
(337,199,cs),
(329,210,o),
(316,209,o),
(308,208,cs),
(244,203,o),
(198,204,o),
(160,209,cs),
(132,213,o),
(119,224,o),
(121,275,cs),
(123,317,o),
(137,784,o),
(137,823,cs),
(136,857,o),
(133,875,o),
(132,892,cs),
(131,914,o),
(118,904,o),
(117,893,cs),
(113,860,o),
(76,810,o),
(46,776,cs),
(42,771,o),
(36,768,o),
(36,762,cs),
(36,752,o),
(45,735,o),
(43,708,cs),
(41,642,o),
(36,529,o),
(36,459,cs),
(35,308,o),
(33,65,o),
(9,24,cs),
(7,20,o),
(-2,16,o),
(0,13,c),
(1,9,o),
(14,6,o),
(21,6,cs),
(151,-3,o),
(285,0,o),
(388,0,c)
);
},
{
closed = 1;
nodes = (
(114,99,o),
(105,132,o),
(106,153,c),
(68,112,l),
(122,112,o),
(176,111,o),
(230,112,cs),
(233,112,o),
(235,104,o),
(235,101,c),
(204,100,o),
(173,99,o),
(142,99,cs)
);
}
);
width = 378;
}
);
metricLeft = "=tah-ar";
metricRight = "=-10";
script = arabic;
sortName = arL0032;
sortNameKeep = arL0032;
}
{
category = Letter;
color = 9;
glyphname = "tah-ar.init.hah1";
kernLeft = sad;
layers = (
{
anchors = (
{
name = damma;
pos = (-6,290);
},
{
name = exit;
pos = (0,115);
},
{
name = fatha;
pos = (-47,754);
},
{
name = kasra;
pos = (862,48);
},
{
name = top;
pos = (275,369);
}
);
layerId = m01;
shapes = (
{
closed = 1;
nodes = (
(91,116,o),
(823,113,o),
(934,115,cs),
(961,115,o),
(979,118,o),
(981,145,cs),
(985,197,o),
(959,268,o),
(929,312,cs),
(922,323,o),
(909,325,o),
(899,324,cs),
(650,307,o),
(280,309,o),
(134,311,cs),
(111,311,o),
(88,316,o),
(88,350,cs),
(86,502,o),
(92,546,o),
(95,714,cs),
(96,781,o),
(90,841,o),
(87,898,cs),
(86,912,o),
(76,918,o),
(69,906,cs),
(48,873,o),
(22,836,o),
(2,816,cs),
(-5,810,o),
(-2,800,o),
(-1,790,cs),
(9,727,o),
(8,623,o),
(8,557,cs),
(8,395,o),
(1,353,o),
(3,190,c),
(20,225,l),
(-20,225,l),
(-20,115,l)
);
},
{
closed = 1;
nodes = (
(95,204,o),
(80,220,o),
(78,233,c),
(66,215,l),
(291,219,o),
(732,227,o),
(821,227,cs),
(824,227,o),
(826,219,o),
(826,216,c),
(703,213,o),
(294,204,o),
(120,204,cs)
);
}
);
width = 981;
},
{
anchors = (
{
name = damma;
pos = (-6,290);
},
{
name = exit;
pos = (0,115);
},
{
name = fatha;
pos = (-47,754);
},
{
name = kasra;
pos = (2969,48);
},
{
name = top;
pos = (2782,369);
}
);
associatedMasterId = m01;
attr = {
coordinates = (
0,
100
);
};
layerId = "88F229B6-DD0B-4918-BCCF-4C0C47A68CDE";
name = "17 May 23 at 01:16";
shapes = (
{
closed = 1;
nodes = (
(2691,120,o),
(3342,120,o),
(5953,115,cs),
(5980,115,o),
(5998,118,o),
(6000,145,cs),
(6004,197,o),
(5978,268,o),
(5948,312,cs),
(5941,323,o),
(5928,324,o),
(5918,324,cs),
(3169,302,o),
(2880,302,o),
(134,311,cs),
(111,311,o),
(88,316,o),
(88,350,cs),
(86,502,o),
(92,546,o),
(95,714,cs),
(96,781,o),
(90,841,o),
(87,898,cs),
(86,912,o),
(76,918,o),
(69,906,cs),
(48,873,o),
(22,836,o),
(2,816,cs),
(-5,810,o),
(-2,800,o),
(-1,790,cs),
(9,727,o),
(8,623,o),
(8,557,cs),
(8,395,o),
(1,353,o),
(3,190,c),
(20,225,l),
(-20,225,l),
(-20,115,l)
);
},
{
closed = 1;
nodes = (
(95,204,o),
(80,220,o),
(78,233,c),
(66,215,l),
(2891,229,o),
(3251,229,o),
(5840,227,cs),
(5843,227,o),
(5845,219,o),
(5845,216,c),
(3222,204,o),
(2894,204,o),
(120,204,cs)
);
}
);
width = 6000;
},
{
anchors = (
{
name = damma;
pos = (-6,290);
},
{
name = exit;
pos = (0,115);
},
{
name = fatha;
pos = (-47,754);
},
{
name = kasra;
pos = (376,27);
},
{
name = top;
pos = (198,411);
}
);
associatedMasterId = m01;
attr = {
coordinates = (
0,
0
);
};
layerId = "BCED32DF-DF02-4224-A6E8-059FA84C5DFA";
name = "17 May 23 at 16:11";
shapes = (
{
closed = 1;
nodes = (
(91,116,o),
(264,116,o),
(375,115,cs),
(402,115,o),
(420,118,o),
(422,145,cs),
(426,197,o),
(400,268,o),
(370,312,cs),
(363,323,o),
(350,324,o),
(340,324,cs),
(271,323,o),
(203,317,o),
(134,324,cs),
(111,326,o),
(88,330,o),
(88,364,cs),
(86,502,o),
(92,546,o),
(95,714,cs),
(96,781,o),
(90,841,o),
(87,898,cs),
(86,912,o),
(76,918,o),
(69,906,cs),
(48,873,o),
(22,836,o),
(2,816,cs),
(-5,810,o),
(-2,800,o),
(-1,790,cs),
(9,727,o),
(8,623,o),
(8,557,cs),
(8,395,o),
(1,353,o),
(3,190,c),
(20,225,l),
(-20,225,l),
(-20,115,l)
);
},
{
closed = 1;
nodes = (
(90,216,o),
(75,232,o),
(73,245,c),
(61,227,l),
(128,228,o),
(195,228,o),
(262,227,cs),
(265,227,o),
(267,219,o),
(267,216,c),
(216,215,o),
(166,215,o),
(115,216,cs)
);
}
);
width = 422;
}
);
metricLeft = "=-20";
metricRight = "=sad-ar";
production = tahar.init.hah1;
script = arabic;
sortName = arL0034.hah1;
sortNameKeep = arL0034.hah1;
}
{
category = Letter;
color = 9;
glyphname = "tah-ar.init.hah2";
kernLeft = sad;
layers = (
{
anchors = (
{
name = damma;
pos = (-6,405);
},
{
name = exit;
pos = (0,230);
},
{
name = fatha;
pos = (-47,759);
},
{
name = kasra;
pos = (862,163);
},
{
name = top;
pos = (275,484);
}
);
layerId = m01;
shapes = (
{
closed = 1;
nodes = (
(91,231,o),
(823,228,o),
(934,230,cs),
(961,230,o),
(979,233,o),
(981,260,cs),
(985,312,o),
(959,383,o),
(929,427,cs),
(922,438,o),
(909,440,o),
(899,439,cs),
(650,422,o),
(280,424,o),
(134,426,cs),
(111,426,o),
(88,431,o),
(88,465,cs),
(86,617,o),
(86,661,o),
(88,719,cs),
(90,786,o),
(90,846,o),
(87,903,cs),
(86,917,o),
(76,923,o),
(69,911,cs),
(48,878,o),
(22,841,o),
(2,821,cs),
(-5,815,o),
(-2,805,o),
(-1,795,cs),
(9,732,o),
(8,698,o),
(8,622,cs),
(8,510,o),
(1,468,o),
(3,305,c),
(20,340,l),
(-20,340,l),
(-20,230,l)
);
},
{
closed = 1;
nodes = (
(95,319,o),
(80,335,o),
(78,348,c),
(66,330,l),
(291,334,o),
(732,342,o),
(821,342,cs),
(824,342,o),
(826,334,o),
(826,331,c),
(703,328,o),
(294,319,o),
(120,319,cs)
);
}
);
width = 981;
},
{
anchors = (
{
name = damma;
pos = (-6,405);
},
{
name = exit;
pos = (0,230);
},
{
name = fatha;
pos = (-47,759);
},
{
name = kasra;
pos = (2969,163);
},
{
name = top;
pos = (2782,484);
}
);
associatedMasterId = m01;
attr = {
coordinates = (
0,
100
);
};
layerId = "C81DCBC0-C5CF-4390-81C3-70D0FB6B7C4D";
name = "17 May 23 at 01:16";
shapes = (
{
closed = 1;
nodes = (
(2691,235,o),
(3342,235,o),
(5953,230,cs),
(5980,230,o),
(5998,233,o),
(6000,260,cs),
(6004,312,o),
(5978,383,o),
(5948,427,cs),
(5941,438,o),
(5928,439,o),
(5918,439,cs),
(3169,417,o),
(2880,417,o),
(134,426,cs),
(111,426,o),
(88,431,o),
(88,465,cs),
(86,617,o),
(86,661,o),
(88,719,cs),
(90,786,o),
(90,846,o),
(87,903,cs),
(86,917,o),
(76,923,o),
(69,911,cs),
(48,878,o),
(22,841,o),
(2,821,cs),
(-5,815,o),
(-2,805,o),
(-1,795,cs),
(9,732,o),
(8,698,o),
(8,622,cs),
(8,510,o),
(1,468,o),
(3,305,c),
(20,340,l),
(-20,340,l),
(-20,230,l)
);
},
{
closed = 1;
nodes = (
(95,319,o),
(80,335,o),
(78,348,c),
(66,330,l),
(2891,344,o),
(3251,344,o),
(5840,342,cs),
(5843,342,o),
(5845,334,o),
(5845,331,c),
(3222,319,o),
(2894,319,o),
(120,319,cs)
);
}
);
width = 6000;
},
{
anchors = (
{
name = damma;
pos = (-6,405);
},
{
name = exit;
pos = (0,230);
},
{
name = fatha;
pos = (-47,759);
},
{
name = kasra;
pos = (376,142);
},
{
name = top;
pos = (198,526);
}
);
associatedMasterId = m01;
attr = {
coordinates = (
0,
0
);
};
layerId = "87342EEA-EB66-4235-B3FA-BFCA0294C297";
name = "17 May 23 at 16:11";
shapes = (
{
closed = 1;
nodes = (
(91,231,o),
(264,231,o),
(375,230,cs),
(402,230,o),
(420,233,o),
(422,260,cs),
(426,312,o),
(400,383,o),
(370,427,cs),
(363,438,o),
(350,439,o),
(340,439,cs),
(271,438,o),
(203,432,o),
(134,439,cs),
(111,441,o),
(88,445,o),
(88,479,cs),
(86,617,o),
(86,661,o),
(88,719,cs),
(90,786,o),
(90,846,o),
(87,903,cs),
(86,917,o),
(76,923,o),
(69,911,cs),
(48,878,o),
(22,841,o),
(2,821,cs),
(-5,815,o),
(-2,805,o),
(-1,795,cs),
(9,732,o),
(8,698,o),
(8,622,cs),
(8,510,o),
(1,468,o),
(3,305,c),
(20,340,l),
(-20,340,l),
(-20,230,l)
);
},
{
closed = 1;
nodes = (
(90,331,o),
(75,347,o),
(73,360,c),
(61,342,l),
(128,343,o),
(195,343,o),
(262,342,cs),
(265,342,o),
(267,334,o),
(267,331,c),
(216,330,o),
(166,330,o),
(115,331,cs)
);
}
);
width = 422;
}
);
metricLeft = "=-20";
metricRight = "=sad-ar";
production = tahar.init.hah2;
script = arabic;
sortName = arL0034.hah2;
sortNameKeep = arL0034.hah2;
}
{
category = Letter;
glyphname = "waw-ar.fina";
layers = (
{
anchors = (
{
name = damma;
pos = (-2,0);
},
{
name = entry;
pos = (497,0);
},
{
name = fatha;
pos = (265,408);
},
{
name = hamzaabove;
pos = (61,199);
},
{
name = kasra;
pos = (262,-183);
}
);
backgroundImage = {
alpha = 80;
imagePath = "images/image-0056.jpg";
pos = (-6984,-3813);
scale = (14.67,14.67);
};
layerId = m01;
shapes = (
{
closed = 1;
nodes = (
(520,-107,o),
(568,-45,o),
(537,22,cs),
(508,87,o),
(486,156,o),
(446,220,cs),
(417,267,o),
(385,320,o),
(313,320,cs),
(203,320,o),
(121,183,o),
(144,81,cs),
(168,-19,o),
(311,-37,o),
(414,-26,c),
(417,-32,o),
(417,-34,o),
(417,-40,c),
(307,-54,o),
(181,-32,o),
(113,28,c),
(93,-23,o),
(47,-53,o),
(0,-63,c),
(143,-166,o),
(418,-131,o),
(477,-117,cs)
);
},
{
closed = 1;
nodes = (
(323,131,o),
(319,135,o),
(319,140,cs),
(319,145,o),
(323,150,o),
(328,150,cs),
(333,150,o),
(338,145,o),
(338,140,cs),
(338,135,o),
(333,131,o),
(328,131,cs)
);
},
{
closed = 1;
nodes = (
(546,0,l),
(546,110,l),
(509,114,o),
(491,132,o),
(479,158,c),
(479,0,l)
);
}
);
width = 497;
}
);
metricLeft = "=waw-ar";
metricRight = "=-50";
script = arabic;
sortName = arL0077;
sortNameKeep = arL0077;
}
{
category = Letter;
color = 9;
glyphname = "yehbarree-ar.dal";
layers = (
{
anchors = (
{
name = bottom;
pos = (722,-167);
},
{
name = damma;
pos = (-49,37);
},
{
name = fatha;
pos = (192,223);
},
{
name = kasra;
pos = (188,-162);
}
);
backgroundImage = {
alpha = 80;
imagePath = "images/MS-Arabe-350-0000002.png";
locked = 1;
pos = (-41,-753);
scale = (2.5,2.5);
};
layerId = m01;
shapes = (
{
closed = 1;
nodes = (
(311,-109,o),
(1125,-113,o),
(1334,-109,cs),
(1387,-108,o),
(1425,-59,o),
(1475,-28,cs),
(1479,-25,o),
(1478,-22,o),
(1473,-22,cs),
(1413,-24,o),
(515,-27,o),
(283,-19,cs),
(179,-16,o),
(76,3,o),
(129,80,cs),
(151,114,o),
(192,152,o),
(226,189,c),
(219,198,l),
(131,121,o),
(29,33,o),
(7,-14,cs),
(-24,-81,o),
(52,-105,o),
(190,-107,cs)
);
}
);
width = 155;
},
{
anchors = (
{
name = bottom;
pos = (722,-167);
},
{
name = damma;
pos = (-49,37);
},
{
name = fatha;
pos = (192,223);
},
{
name = kasra;
pos = (188,-162);
}
);
associatedMasterId = m01;
attr = {
coordinates = (
0,
100
);
};
backgroundImage = {
alpha = 80;
imagePath = "images/MS-Arabe-350-0000002.png";
locked = 1;
pos = (-41,-753);
scale = (2.5,2.5);
};
layerId = "6F366F50-ADC0-4B6D-9603-CEEBFF83328D";
name = "23 May 23 at 04:23";
shapes = (
{
closed = 1;
nodes = (
(843,-116,o),
(4648,-137,o),
(6157,-109,cs),
(6210,-108,o),
(6248,-59,o),
(6298,-28,cs),
(6302,-25,o),
(6301,-22,o),
(6296,-22,cs),
(4636,-34,o),
(915,-37,o),
(283,-19,cs),
(179,-16,o),
(76,3,o),
(129,80,cs),
(151,114,o),
(192,152,o),
(226,189,c),
(219,198,l),
(131,121,o),
(29,33,o),
(7,-14,cs),
(-24,-81,o),
(52,-105,o),
(190,-107,cs)
);
}
);
width = 155;
}
);
metricLeft = "=0";
script = arabic;
sortName = arL0081;
sortNameKeep = arL0081;
}
{
category = Letter;
color = 9;
glyphname = "yehbarree-ar.fina";
kernRight = yehbarree;
layers = (
{
anchors = (
{
name = bottom;
pos = (420,-147);
},
{
name = damma;
pos = (-31,37);
},
{
name = entry;
pos = (349,0);
},
{
name = fatha;
pos = (173,296);
},
{
name = kasra;
pos = (236,-162);
}
);
backgroundImage = {
alpha = 80;
imagePath = "images/CBL-MS-1407-000007.png";
locked = 1;
pos = (-661,-412);
scale = (0.9,0.9);
};
layerId = m01;
shapes = (
{
closed = 1;
nodes = (
(333,-110,o),
(728,-117,o),
(937,-99,cs),
(990,-94,o),
(1028,-52,o),
(1078,-21,cs),
(1082,-18,o),
(1081,-15,o),
(1076,-15,cs),
(929,-18,o),
(783,-20,o),
(636,-18,cs),
(535,-20,o),
(434,-18,o),
(349,-18,cs),
(259,-15,o),
(167,-14,o),
(130,76,cs),
(124,89,o),
(137,96,o),
(144,82,cs),
(171,25,o),
(212,0,o),
(349,0,c),
(349,117,l),
(307,130,o),
(263,215,o),
(183,215,cs),
(67,215,o),
(0,122,o),
(0,38,cs),
(0,-78,o),
(74,-104,o),
(212,-107,cs)
);
}
);
width = 1080;
},
{
anchors = (
{
name = bottom;
pos = (405,-147);
},
{
name = damma;
pos = (-46,37);
},
{
name = entry;
pos = (349,0);
},
{
name = fatha;
pos = (158,296);
},
{
name = kasra;
pos = (221,-162);
}
);
associatedMasterId = m01;
attr = {
coordinates = (
100
);
};
layerId = "4056B62C-A4D1-4766-949E-138DB5BE0EA1";
name = "{0, 100} 24 Sep 25 at 18:20";
shapes = (
{
closed = 1;
nodes = (
(2091,-91,o),
(5640,-81,o),
(5849,-81,cs),
(5901,-81,o),
(5948,-50,o),
(5998,-21,cs),
(6002,-18,o),
(6001,-15,o),
(5996,-15,cs),
(5379,-18,o),
(4387,-18,o),
(2964,-18,cs),
(1655,-18,o),
(406,-18,o),
(349,-18,cs),
(259,-18,o),
(167,-14,o),
(130,76,cs),
(124,89,o),
(137,96,o),
(144,82,cs),
(171,25,o),
(212,0,o),
(349,0,c),
(349,117,l),
(307,130,o),
(263,215,o),
(183,215,cs),
(67,215,o),
(0,122,o),
(0,38,cs),
(0,-78,o),
(73,-108,o),
(211,-107,cs)
);
}
);
width = 6000;
}
);
metricLeft = "=0";
metricRight = "=0";
script = arabic;
sortName = arL0082;
sortNameKeep = arL0082;
}
